<svg id="Layer_1" data-name="Layer 1" xmlns="http://www.w3.org/2000/svg" viewBox="0 0 1677.53 753.7"><defs><style>.cls-1{fill:#fff;}.cls-2{fill:#e88124;}.cls-3{fill:#2a3152;}</style></defs><title>Binarycom_official_logo_</title><path class="cls-1" d="M740.87,280.58a40.31,40.31,0,0,0-12,1.66,39.85,39.85,0,0,0-9.71,4.47,40.37,40.37,0,0,0-7.73,6.45c-0.58.59-1.15,1.24-1.72,1.89V282.83H680.19V395h29.52V332.12c0-7.73,2-13.77,6-18s9.14-6.27,15.65-6.27,11.55,2,15.06,6,5.37,10.06,5.37,17.83V395h29.55V324.24c0-13.14-3.56-23.8-10.57-31.66S753.69,280.58,740.87,280.58Z"/><path class="cls-1" d="M849.72,281.41a93.6,93.6,0,0,0-23.19,2.5,118.12,118.12,0,0,0-18.68,6.65l-2,.91,8.19,24.14,2.34-1a108.46,108.46,0,0,1,14.11-4.78,63.48,63.48,0,0,1,15.71-1.76c7.88,0,14,1.78,18.07,5.34,3.82,3.29,5.79,7.91,6,14.16a105.26,105.26,0,0,0-10.36-2.4,98.74,98.74,0,0,0-17-1.25,69.88,69.88,0,0,0-18,2.21,41.85,41.85,0,0,0-14.65,6.91,32.73,32.73,0,0,0-9.74,11.82,37.48,37.48,0,0,0-3.49,16.61v0.41a33.77,33.77,0,0,0,3.39,15.41,33,33,0,0,0,9,11.15,38.57,38.57,0,0,0,12.88,6.72,52.31,52.31,0,0,0,15.37,2.23c8.47,0,15.81-1.59,21.82-4.73a51.75,51.75,0,0,0,10.59-7.29v9.77h29.14v-66c0-15-4.12-26.78-12.28-35.13S866.31,281.41,849.72,281.41Zm-5.09,92.79a23.59,23.59,0,0,1-13.47-3.67c-3.31-2.27-4.93-5.49-4.93-9.84v-0.41A11.76,11.76,0,0,1,831.7,350c3.93-2.69,9.58-4,16.79-4a71.06,71.06,0,0,1,13.08,1.16,67.65,67.65,0,0,1,9.18,2.39V354a17.86,17.86,0,0,1-1.84,8.17,19.24,19.24,0,0,1-5.33,6.34,28,28,0,0,1-8.36,4.22A35.78,35.78,0,0,1,844.63,374.2Z"/><path class="cls-1" d="M1051.41,358.1l-28.81-75.28H991.21L1037,392.59c-1.77,3.86-3.58,6.54-5.41,7.92a11.6,11.6,0,0,1-7.33,2.18,22.82,22.82,0,0,1-6.71-1,39.09,39.09,0,0,1-6.63-2.79l-2.21-1.17L998.4,420.33l1.94,1a61.35,61.35,0,0,0,12.16,5,53.18,53.18,0,0,0,14.39,1.81,41.06,41.06,0,0,0,12.3-1.73,30.94,30.94,0,0,0,10.17-5.63,39.81,39.81,0,0,0,8.24-9.85,95.59,95.59,0,0,0,6.88-14.42l44-113.7h-30.74Z"/><path class="cls-2" d="M1244.16,358.59a56.46,56.46,0,0,1-12,9.3,30.36,30.36,0,0,1-26.24.94,29.91,29.91,0,0,1-9.43-6.88,31,31,0,0,1-6.16-10.22,36.44,36.44,0,0,1-2.17-12.61V338.7a35.68,35.68,0,0,1,2.17-12.4,31.75,31.75,0,0,1,6-10.13,28.91,28.91,0,0,1,9-6.78,26,26,0,0,1,11.37-2.5c5.8,0,10.69,1.16,14.58,3.43a55.5,55.5,0,0,1,11.61,9.28l1.75,1.78,18.42-19.88-1.45-1.6a62.52,62.52,0,0,0-18.29-14c-7-3.55-15.91-5.34-26.4-5.34a57.36,57.36,0,0,0-53.94,36,59.6,59.6,0,0,0-4.37,22.55v0.41A59.07,59.07,0,0,0,1163,362a56.89,56.89,0,0,0,12.18,18.46,58.7,58.7,0,0,0,18.43,12.4,58.07,58.07,0,0,0,23.11,4.57c10.8,0,19.89-2,27-5.89a70.33,70.33,0,0,0,18.73-15.07l1.52-1.66L1245.79,357Z"/><path class="cls-2" d="M1375.35,297.67a57.56,57.56,0,0,0-18.88-12.52,61.15,61.15,0,0,0-23.81-4.57,60.44,60.44,0,0,0-23.79,4.67,58.54,58.54,0,0,0-31.35,31.15,57.11,57.11,0,0,0-4.57,22.7v0.41a58.15,58.15,0,0,0,4.43,22.47,56.27,56.27,0,0,0,12.46,18.46,59.16,59.16,0,0,0,18.86,12.42,63.42,63.42,0,0,0,47.49-.14,58,58,0,0,0,31.46-31.14,56.14,56.14,0,0,0,4.56-22.5v-0.41A57.12,57.12,0,0,0,1375.35,297.67Zm-42.69,73.68a28.5,28.5,0,0,1-12-2.53,30.42,30.42,0,0,1-9.58-7,33.62,33.62,0,0,1-6.3-10.26,34.34,34.34,0,0,1-2.27-12.47v-0.42a37.41,37.41,0,0,1,2.09-12.44,29,29,0,0,1,6-10.06,29.68,29.68,0,0,1,9.47-6.79,31,31,0,0,1,24.53,0,30,30,0,0,1,9.6,6.9,31.43,31.43,0,0,1,6.28,10.22,35.09,35.09,0,0,1,2.27,12.58v0.41a36.29,36.29,0,0,1-2.07,12.32,31,31,0,0,1-6,10.11,30,30,0,0,1-9.43,6.86A29.71,29.71,0,0,1,1332.66,371.35Z"/><path class="cls-2" d="M1565.6,292c-7.07-7.57-17-11.42-29.48-11.42-8.53,0-16,1.87-22.29,5.56A55.26,55.26,0,0,0,1500,297.84a36.25,36.25,0,0,0-11.37-11.62c-5.66-3.73-12.7-5.63-20.83-5.63a39.36,39.36,0,0,0-11.74,1.66,35.46,35.46,0,0,0-9.54,4.51,42.43,42.43,0,0,0-7.41,6.29c-0.57.59-1.08,1.19-1.6,1.79v-12h-29.54V395h29.54V332.31c0-7.74,1.9-13.84,5.7-18.12s8.62-6.3,14.84-6.3,10.87,1.93,14.19,5.86,5.14,10,5.14,17.77V395h29.54V332.12c0-8,1.92-14.13,5.73-18.18s8.65-6.06,14.81-6.06,10.87,1.93,14.19,5.86,5.13,10.07,5.13,18V395h29.5V324C1576.23,310.32,1572.68,299.56,1565.6,292Z"/><rect class="cls-1" x="634.9" y="282.83" width="29.56" height="112.16"/><path class="cls-1" d="M666,256.58a16.36,16.36,0,1,0-16.38,16.36A16.37,16.37,0,0,0,666,256.58Z"/><path class="cls-2" d="M1144.55,381.08a16.36,16.36,0,1,0-16.34,16.35A16.35,16.35,0,0,0,1144.55,381.08Z"/><path class="cls-1" d="M610.39,326.51a42.06,42.06,0,0,0-9.83-7.79,76.15,76.15,0,0,0-7.61-3.75l-1.66-.69,1.51-1c1.27-.82,2.56-1.72,3.8-2.7a35.33,35.33,0,0,0,7.21-7.37,36.54,36.54,0,0,0,5-9.71,39.06,39.06,0,0,0,1.92-12.75v-0.42A35.75,35.75,0,0,0,600,254.11c-9.16-9.23-22.85-13.9-40.62-13.9H489.91V395h71.62a91.77,91.77,0,0,0,23.31-2.77,55.81,55.81,0,0,0,18.25-8.13,38,38,0,0,0,11.85-13.56,41,41,0,0,0,4.18-18.71v-0.42a40.49,40.49,0,0,0-2.28-14.17A31.57,31.57,0,0,0,610.39,326.51Zm-90.93-23.33V267h36.68c8.2,0,14.54,1.58,18.79,4.76s6.17,7.34,6.17,12.94v0.42c0,6.44-2.29,11.07-7.05,14.18s-11.58,4.85-19.89,4.85H519.46v-1ZM589.58,349c0,6.42-2.35,11.1-7.13,14.29s-11.82,4.93-20.5,4.93H519.46V329.77H560c10.11,0,17.71,1.71,22.53,5.05s7,7.74,7,13.76V349Z"/><path class="cls-1" d="M980.39,280.79c-10-.42-18.48,2-25.14,7.24a46.09,46.09,0,0,0-10.64,11.76v-17H915.06V395h29.55V351.73a57.17,57.17,0,0,1,2.53-17.91,34.11,34.11,0,0,1,7-12.46A29,29,0,0,1,964.91,314a37.92,37.92,0,0,1,14-2.48h3.63V280.89Z"/><path class="cls-1" d="M489.91,492.16l7.71-.72-0.07,2a12.4,12.4,0,0,0,1.54,6.24,10.2,10.2,0,0,0,5.16,4.36,21.55,21.55,0,0,0,8.58,1.55q7.07,0,10.78-3.09a9,9,0,0,0,3.71-7.07,7.51,7.51,0,0,0-2-5c-1.35-1.52-5-3.54-11-6.11a74.42,74.42,0,0,1-9.45-4.6,18.86,18.86,0,0,1-5.87-5.67,13.14,13.14,0,0,1-1.88-7,14.08,14.08,0,0,1,2.47-8.15,15.51,15.51,0,0,1,7.3-5.58,28.76,28.76,0,0,1,10.8-1.95,27.34,27.34,0,0,1,12.1,2.42,16.1,16.1,0,0,1,9.4,14.07c0,0.24,0,.64-0.06,1.21l-7.56.58a13.36,13.36,0,0,0-.45-3.86,10.81,10.81,0,0,0-2.5-4.16,12.26,12.26,0,0,0-4.62-2.68,20.11,20.11,0,0,0-6.62-1c-4.28,0-7.59,1-10,2.9a7.52,7.52,0,0,0-1.61,9.71,11.51,11.51,0,0,0,4.06,3.36c1.39,0.78,4.71,2.3,9.91,4.6a63.47,63.47,0,0,1,8.73,4.42,15.06,15.06,0,0,1,4.92,5.14,13.52,13.52,0,0,1,1.75,6.88,14.78,14.78,0,0,1-2.92,8.8,18.78,18.78,0,0,1-8,6.22,29.43,29.43,0,0,1-11.79,2.22c-6.66,0-12.07-1.45-16.29-4.35S489.94,499.69,489.91,492.16Z"/><path class="cls-1" d="M543.28,511.17l12.28-58.78h7.25L558.14,475a29.56,29.56,0,0,1,7.51-5.66,16.19,16.19,0,0,1,7.19-1.68c3.53,0,6.26.91,8.22,2.77a9.68,9.68,0,0,1,2.95,7.36A46.78,46.78,0,0,1,582.7,486l-5.25,25.15h-7.26l5.42-25.79a48.84,48.84,0,0,0,1.15-7.05,4.38,4.38,0,0,0-1.44-3.4,5.83,5.83,0,0,0-4.15-1.32,15.13,15.13,0,0,0-13.09,7.7c-1.37,2.4-2.59,6.27-3.73,11.58l-3.82,18.29h-7.25Z"/><path class="cls-1" d="M619.34,505.89a30.19,30.19,0,0,1-7.28,4.74,18.52,18.52,0,0,1-7.47,1.5,13.1,13.1,0,0,1-9.49-3.46,11.76,11.76,0,0,1-3.61-8.89,12.13,12.13,0,0,1,1.64-6.33,12.63,12.63,0,0,1,4.32-4.39,18.53,18.53,0,0,1,6.56-2.4,76.12,76.12,0,0,1,9.3-.77c4.53-.18,7.82-0.65,9.82-1.44a20.28,20.28,0,0,0,.82-4.93,4.78,4.78,0,0,0-1.84-4c-1.71-1.35-4.13-2-7.4-2a12.73,12.73,0,0,0-7.47,2,11.25,11.25,0,0,0-4.23,5.76l-7.32-.66a18.82,18.82,0,0,1,7.1-9.7q4.87-3.36,12.28-3.36c5.29,0,9.42,1.25,12.51,3.76a8.9,8.9,0,0,1,3.54,7.3,37.75,37.75,0,0,1-1,7.91l-2.36,10.58a38.34,38.34,0,0,0-1.12,8.22,26.5,26.5,0,0,0,.89,5.78h-7.36A23.62,23.62,0,0,1,619.34,505.89ZM622,489.61a18.6,18.6,0,0,1-3.26.91q-1.78.33-5.85,0.68a45.8,45.8,0,0,0-9,1.42,7.88,7.88,0,0,0-3.91,2.75,7.21,7.21,0,0,0-1.31,4.16,6.49,6.49,0,0,0,2.1,5,8.51,8.51,0,0,0,6,2A14.1,14.1,0,0,0,619,499.28,31.41,31.41,0,0,0,622,489.61Z"/><path class="cls-1" d="M637.91,511.17l8.92-42.6h6.41l-1.82,8.73a30,30,0,0,1,6.45-7.33,10.72,10.72,0,0,1,6.44-2.34,12.52,12.52,0,0,1,5.33,1.55l-3,6.75a6.83,6.83,0,0,0-4.12-1.38c-2.53,0-5.16,1.42-7.82,4.26s-4.76,7.91-6.3,15.28l-3.59,17.08h-6.92Z"/><path class="cls-1" d="M663.35,527.48l12.3-58.92h6.69l-1.23,6a27.65,27.65,0,0,1,6.67-5.4,13.85,13.85,0,0,1,6.25-1.48,13.09,13.09,0,0,1,10.1,4.42c2.65,3,4,7.17,4,12.69a32.43,32.43,0,0,1-2.21,12.12,27.46,27.46,0,0,1-5.42,8.8,23.4,23.4,0,0,1-6.49,4.91,15.77,15.77,0,0,1-6.74,1.55q-7.65,0-11.89-7.78l-4.8,23.14h-7.25Zm14.34-33.72a22.82,22.82,0,0,0,.67,6.61,9.16,9.16,0,0,0,3.32,4.24,8.9,8.9,0,0,0,5.26,1.58q6.27,0,10.13-7a29.65,29.65,0,0,0,3.83-14.36c0-3.63-.86-6.41-2.57-8.39a8.25,8.25,0,0,0-6.45-2.93,9.58,9.58,0,0,0-5.15,1.46,15.46,15.46,0,0,0-4.37,4.36,26.16,26.16,0,0,0-3.36,7.13A25.14,25.14,0,0,0,677.68,493.76Z"/><path class="cls-1" d="M739.46,511.17l12.29-58.78h24.56c4.26,0,7.44.49,9.59,1.45a11.94,11.94,0,0,1,5.26,5,15.53,15.53,0,0,1,2.09,8A21.66,21.66,0,0,1,788,480.45a18,18,0,0,1-4.6,3.69,19.42,19.42,0,0,1-5,1.84A50.18,50.18,0,0,1,767,487.29H752.31l-5,23.88h-7.86Zm14.24-30.52h12.95q7.58,0,11.1-1.63a13.48,13.48,0,0,0,7.77-12,8.75,8.75,0,0,0-1.15-4.71,6.65,6.65,0,0,0-3.15-2.68c-1.37-.58-4-0.86-7.87-0.86H758.26Z"/><path class="cls-1" d="M795.07,511.17l8.92-42.6h6.41l-1.83,8.73A30.49,30.49,0,0,1,815,470a10.66,10.66,0,0,1,6.44-2.34,12.75,12.75,0,0,1,5.33,1.55l-3,6.75a6.9,6.9,0,0,0-4.13-1.38q-3.82,0-7.8,4.26c-2.66,2.84-4.76,7.91-6.28,15.28L802,511.17h-6.9Z"/><path class="cls-1" d="M823.79,511.17l8.93-42.6h7.2l-8.85,42.6h-7.29Zm10.59-50.57,1.73-8.21h7.22l-1.72,8.21h-7.24Z"/><path class="cls-1" d="M873.36,495.65l7.26,0.76q-2.74,8-7.74,11.85a18.37,18.37,0,0,1-11.45,3.87,14.88,14.88,0,0,1-11.26-4.49c-2.9-3-4.32-7.18-4.32-12.55a36.25,36.25,0,0,1,2.74-13.71,22.16,22.16,0,0,1,8-10.25,20.44,20.44,0,0,1,11.76-3.49c4.56,0,8.22,1.28,10.86,3.87s4,6,4,10.24l-7.11.46a8.73,8.73,0,0,0-2.38-6.33,8.23,8.23,0,0,0-6.06-2.28,11.07,11.07,0,0,0-7.56,2.78c-2.15,1.82-3.83,4.63-5.06,8.37a34.38,34.38,0,0,0-1.84,10.85c0,3.67.82,6.36,2.44,8.2a7.54,7.54,0,0,0,5.94,2.71,10.32,10.32,0,0,0,6.73-2.68A17.43,17.43,0,0,0,873.36,495.65Z"/><path class="cls-1" d="M918,496.7l7.07,0.7c-1,3.51-3.38,6.85-7,10A19.29,19.29,0,0,1,905,512.13a17.65,17.65,0,0,1-8.69-2.19,14.23,14.23,0,0,1-6-6.36,20.85,20.85,0,0,1-2.1-9.49,30.5,30.5,0,0,1,3.23-13.54,23.17,23.17,0,0,1,8.35-9.74,20.6,20.6,0,0,1,11.13-3.19c5.09,0,9.1,1.56,12.15,4.73s4.59,7.45,4.59,12.91a40.85,40.85,0,0,1-.57,6.43H895.7a15,15,0,0,0-.15,2.22c0,4,.9,7,2.74,9.14a8.55,8.55,0,0,0,6.69,3.14,13,13,0,0,0,7.36-2.44A16.17,16.17,0,0,0,918,496.7Zm-21.11-10.55h23.91c0-.75,0-1.29,0-1.59q0-5.49-2.72-8.38a9.2,9.2,0,0,0-7-2.9,13,13,0,0,0-8.5,3.2C900,478.62,898.1,481.84,896.85,486.15Z"/><path class="cls-1" d="M934.66,496.6l7.25-.42a13.41,13.41,0,0,0,1,5.32,7.81,7.81,0,0,0,3.55,3.64,12.78,12.78,0,0,0,6,1.38c3.22,0,5.64-.62,7.25-1.9a5.39,5.39,0,0,0,1-8.12c-1-1.11-3.43-2.48-7.25-4.15a70.74,70.74,0,0,1-7.37-3.48,11.87,11.87,0,0,1-4-3.88,9.64,9.64,0,0,1-1.35-5.1,11.26,11.26,0,0,1,4-8.66c2.7-2.4,6.43-3.6,11.26-3.6,5.31,0,9.39,1.23,12.19,3.7a12.78,12.78,0,0,1,4.35,9.77l-7.11.47a8,8,0,0,0-2.71-6.09c-1.71-1.5-4.16-2.26-7.26-2.26a8.69,8.69,0,0,0-5.84,1.75,4.78,4.78,0,0,0-2.1,3.72,4.48,4.48,0,0,0,1.8,3.51c0.8,0.71,2.87,1.76,6.22,3.23,5.56,2.4,9,4.28,10.5,5.68a10.86,10.86,0,0,1,3.45,8.11,11.4,11.4,0,0,1-2,6.22,13.13,13.13,0,0,1-5.93,4.86,22.2,22.2,0,0,1-9.4,1.83,21.08,21.08,0,0,1-12.55-3.65C936.11,506,934.47,502.09,934.66,496.6Z"/><path class="cls-1" d="M978.67,511.17l1.76-8.22h8.22l-1.81,8.22h-8.17Z"/><path class="cls-1" d="M1028.65,492.16l7.71-.72-0.1,2a12.84,12.84,0,0,0,1.55,6.24,10.28,10.28,0,0,0,5.17,4.36,21.66,21.66,0,0,0,8.62,1.55c4.68,0,8.28-1,10.74-3.09s3.71-4.41,3.71-7.07a7.56,7.56,0,0,0-1.94-5c-1.35-1.52-5-3.54-10.93-6.11a73.67,73.67,0,0,1-9.48-4.6,19,19,0,0,1-5.88-5.67,13.23,13.23,0,0,1-1.86-7,14.24,14.24,0,0,1,2.47-8.15,15.54,15.54,0,0,1,7.28-5.58,29,29,0,0,1,10.83-1.95,27.31,27.31,0,0,1,12.08,2.42,15.52,15.52,0,0,1,7.15,6.41,15.68,15.68,0,0,1,2.24,7.66c0,0.24,0,.64,0,1.21l-7.57.58a13,13,0,0,0-.45-3.86,10.23,10.23,0,0,0-2.49-4.16,12.19,12.19,0,0,0-4.6-2.68,20.24,20.24,0,0,0-6.62-1c-4.26,0-7.6,1-10,2.9a7.16,7.16,0,0,0-2.7,5.84,6.84,6.84,0,0,0,1.13,3.87,11.38,11.38,0,0,0,4,3.36c1.37,0.78,4.7,2.3,9.89,4.6a62.24,62.24,0,0,1,8.74,4.42,14.91,14.91,0,0,1,4.95,5.14,13.5,13.5,0,0,1,1.72,6.88,15,15,0,0,1-2.9,8.8,18.59,18.59,0,0,1-8,6.22,29.09,29.09,0,0,1-11.77,2.22c-6.63,0-12.07-1.45-16.29-4.35S1028.67,499.69,1028.65,492.16Z"/><path class="cls-1" d="M1082,511.17l8.9-42.6h7.27l-1.5,7a30.1,30.1,0,0,1,7.26-6.25,14.63,14.63,0,0,1,6.91-1.7,10.27,10.27,0,0,1,6.64,2.1,10.08,10.08,0,0,1,3.52,5.86,23.71,23.71,0,0,1,6.85-6,15.36,15.36,0,0,1,7.55-2q5.34,0,8,2.51a9.3,9.3,0,0,1,2.66,7.1,38,38,0,0,1-.91,6.5l-5.76,27.43h-7.24L1138,483a26.18,26.18,0,0,0,.76-4.93,4.26,4.26,0,0,0-1.32-3.29,5.4,5.4,0,0,0-3.73-1.19,12.9,12.9,0,0,0-6.61,2,13.71,13.71,0,0,0-5.22,5.15,33.51,33.51,0,0,0-3.27,9.8l-4.35,20.66H1107l6-28.77a23.47,23.47,0,0,0,.63-4.16,4.5,4.5,0,0,0-1.31-3.37,4.61,4.61,0,0,0-3.38-1.27,12.67,12.67,0,0,0-6.46,2A15.43,15.43,0,0,0,1097,481a31.69,31.69,0,0,0-3.5,10l-4.2,20.13H1082Z"/><path class="cls-1" d="M1180.79,505.89a30.09,30.09,0,0,1-7.26,4.74,18.54,18.54,0,0,1-7.49,1.5,13.05,13.05,0,0,1-9.48-3.46,11.71,11.71,0,0,1-3.6-8.89,12.22,12.22,0,0,1,1.61-6.33,12.66,12.66,0,0,1,4.33-4.39,18.68,18.68,0,0,1,6.57-2.4,75.78,75.78,0,0,1,9.27-.77c4.56-.18,7.84-0.65,9.82-1.44a18.32,18.32,0,0,0,.85-4.93,4.85,4.85,0,0,0-1.84-4c-1.7-1.35-4.16-2-7.38-2a12.66,12.66,0,0,0-7.48,2,11.27,11.27,0,0,0-4.24,5.76l-7.32-.66a18.87,18.87,0,0,1,7.13-9.7q4.84-3.36,12.27-3.36,7.91,0,12.51,3.76a8.85,8.85,0,0,1,3.51,7.3,37.08,37.08,0,0,1-1,7.91l-2.36,10.58a38.48,38.48,0,0,0-1.13,8.22,27.33,27.33,0,0,0,.88,5.78h-7.32A24.2,24.2,0,0,1,1180.79,505.89Zm2.67-16.28a17.24,17.24,0,0,1-3.29.91c-1.14.22-3.09,0.45-5.78,0.68a44.74,44.74,0,0,0-9,1.42,7.71,7.71,0,0,0-3.93,2.75,7,7,0,0,0-1.32,4.16,6.55,6.55,0,0,0,2.11,5,8.42,8.42,0,0,0,6,2,13.81,13.81,0,0,0,6.92-1.89,13.61,13.61,0,0,0,5.25-5.33A30.41,30.41,0,0,0,1183.46,489.61Z"/><path class="cls-1" d="M1199.41,511.17l8.88-42.6h6.41l-1.8,8.73a30.72,30.72,0,0,1,6.42-7.33,10.75,10.75,0,0,1,6.46-2.34,12.75,12.75,0,0,1,5.32,1.55l-3,6.75a6.83,6.83,0,0,0-4.12-1.38c-2.56,0-5.15,1.42-7.86,4.26s-4.74,7.91-6.25,15.28l-3.62,17.08h-6.87Z"/><path class="cls-1" d="M1245.35,505.28l-1.19,5.93a20.77,20.77,0,0,1-5.09.67,10.42,10.42,0,0,1-6.89-2.13,5.34,5.34,0,0,1-1.9-4.36,44.73,44.73,0,0,1,1-6.45l5.17-24.74h-5.72l1.15-5.64h5.74l2.19-10.45,8.29-5-3.24,15.47h7.15l-1.21,5.64h-7.09l-5,23.51a40.62,40.62,0,0,0-.89,5.37,2.61,2.61,0,0,0,.72,2,3.52,3.52,0,0,0,2.42.67A17.15,17.15,0,0,0,1245.35,505.28Z"/><path class="cls-1" d="M1293.2,511.17l10.9-52.09h-19.28l1.38-6.69h46.28l-1.41,6.69h-19.12l-10.86,52.09h-7.89Z"/><path class="cls-1" d="M1323,511.17l8.9-42.6h6.4l-1.79,8.73A30.75,30.75,0,0,1,1343,470a10.72,10.72,0,0,1,6.46-2.34,12.56,12.56,0,0,1,5.31,1.55l-3,6.75a7,7,0,0,0-4.16-1.38q-3.81,0-7.79,4.26c-2.68,2.84-4.77,7.91-6.3,15.28l-3.62,17.08H1323Z"/><path class="cls-1" d="M1380.7,505.89a29.34,29.34,0,0,1-7.25,4.74,18.56,18.56,0,0,1-7.44,1.5,13,13,0,0,1-9.5-3.46,11.68,11.68,0,0,1-3.62-8.89,12.22,12.22,0,0,1,1.61-6.33,12.85,12.85,0,0,1,4.32-4.39,18.9,18.9,0,0,1,6.59-2.4,76.31,76.31,0,0,1,9.26-.77c4.58-.18,7.84-0.65,9.82-1.44a18.24,18.24,0,0,0,.84-4.93,4.79,4.79,0,0,0-1.84-4c-1.7-1.35-4.16-2-7.37-2a12.75,12.75,0,0,0-7.49,2,11.53,11.53,0,0,0-4.23,5.76l-7.36-.66a19.13,19.13,0,0,1,7.13-9.7q4.87-3.36,12.29-3.36c5.25,0,9.43,1.25,12.5,3.76a8.83,8.83,0,0,1,3.53,7.3,36.26,36.26,0,0,1-1,7.91l-2.38,10.58a41.88,41.88,0,0,0-1.13,8.22,28.24,28.24,0,0,0,.88,5.78h-7.31A28.23,28.23,0,0,1,1380.7,505.89Zm2.69-16.28a17.24,17.24,0,0,1-3.26.91q-1.75.33-5.82,0.68a43.81,43.81,0,0,0-8.93,1.42,7.8,7.8,0,0,0-4,2.75,7.2,7.2,0,0,0-1.3,4.16,6.62,6.62,0,0,0,2.1,5,8.46,8.46,0,0,0,6,2,13.77,13.77,0,0,0,6.94-1.89,14,14,0,0,0,5.3-5.33A32.83,32.83,0,0,0,1383.39,489.61Z"/><path class="cls-1" d="M1428,505c-4.16,4.75-8.47,7.13-13,7.13a12.93,12.93,0,0,1-10.08-4.47c-2.72-3-4-7.31-4-13a31.66,31.66,0,0,1,3.16-14.22,24.34,24.34,0,0,1,8-9.64,16.83,16.83,0,0,1,9.56-3.21c5.32,0,9.3,2.53,12,7.64l4.82-22.89h7.24l-12.28,58.79h-6.7Zm-19.88-11.67a21.74,21.74,0,0,0,.87,7,9.37,9.37,0,0,0,3,4.28,7.91,7.91,0,0,0,5.12,1.68c3.26,0,6.25-1.68,8.92-5.12,3.56-4.54,5.38-10.15,5.38-16.85,0-3.35-.87-6-2.68-7.88a8.69,8.69,0,0,0-6.65-2.84,10.07,10.07,0,0,0-4.75,1.15,13.94,13.94,0,0,0-4.24,4,24.38,24.38,0,0,0-3.54,7.07A24.1,24.1,0,0,0,1408.15,493.33Z"/><path class="cls-1" d="M1446.34,511.17l8.91-42.6h7.24l-8.87,42.6h-7.27Zm10.6-50.57,1.71-8.21h7.22l-1.71,8.21h-7.22Z"/><path class="cls-1" d="M1466.52,511.17l8.91-42.6H1482l-1.56,7.44a34.79,34.79,0,0,1,8-6.38,15.83,15.83,0,0,1,7.63-2,11.37,11.37,0,0,1,8.12,2.81,9.85,9.85,0,0,1,2.92,7.49,42.62,42.62,0,0,1-1,7.45l-5.43,25.79h-7.25l5.65-27a31.58,31.58,0,0,0,.86-5.82,4.33,4.33,0,0,0-1.5-3.44,5.91,5.91,0,0,0-4.22-1.32,14.25,14.25,0,0,0-9.93,4c-2.88,2.67-5,7.24-6.4,13.75l-4.12,19.8h-7.25Z"/><path class="cls-1" d="M1513.43,515l7.36,0.7a7.12,7.12,0,0,0,.58,3.73,4.5,4.5,0,0,0,2.15,1.92,12.34,12.34,0,0,0,5.1.87c4.41,0,7.54-1.12,9.49-3.39,1.24-1.52,2.4-4.86,3.48-10l0.71-3.44c-3.76,3.83-7.79,5.74-12,5.74a14.08,14.08,0,0,1-10.81-4.76c-2.92-3.17-4.34-7.66-4.34-13.45a26.16,26.16,0,0,1,3.42-13.2,25.67,25.67,0,0,1,8.14-9.08,17.8,17.8,0,0,1,9.73-3.05c5.61,0,9.89,2.63,12.92,7.93l1.44-7h6.66l-8.58,41.11a33.75,33.75,0,0,1-3.7,10.58,15.26,15.26,0,0,1-6.33,5.87,20.43,20.43,0,0,1-9.42,2.09,26,26,0,0,1-8.86-1.33A11,11,0,0,1,1515,523a9.84,9.84,0,0,1-1.83-5.82A17,17,0,0,1,1513.43,515Zm9.08-22.68a18.52,18.52,0,0,0,.83,6.59,10,10,0,0,0,3.41,4.69,8.12,8.12,0,0,0,5,1.65,12.31,12.31,0,0,0,7.1-2.5,17.52,17.52,0,0,0,5.72-7.76,26.73,26.73,0,0,0,2.18-10,11.62,11.62,0,0,0-2.93-8.37,9.35,9.35,0,0,0-7.16-3.1,10.23,10.23,0,0,0-5.16,1.42,15.93,15.93,0,0,0-4.63,4.33,21.24,21.24,0,0,0-3.24,6.94A25.53,25.53,0,0,0,1522.51,492.31Z"/><path class="cls-1" d="M1563.16,511.17l1.72-8.22h8.2l-1.76,8.22h-8.17Z"/><path class="cls-1" d="M392.58,256.14c-66.55-66.6-174.81-66.6-241.39,0S84.65,431,151.2,497.56s174.87,66.58,241.38,0S459.21,322.68,392.58,256.14Z"/><path class="cls-3" d="M224.33,421.62s2,14.64,14.28,21.42l-3.28-6.12S241.6,420.46,224.33,421.62Z"/><path class="cls-3" d="M383.95,264.78c-61.81-61.83-162.31-61.83-224.1,0s-61.79,162.37,0,224.19,162.33,61.79,224.1,0S445.82,326.57,383.95,264.78ZM367.57,472.55c-1.73,1.69-3.42,3.34-5.17,4.92-38.07,31-67.4,15.59-67.73,15.59-19.88-4-29.74-4-35.32-7.76-1.4-.94-5.9-3.36-6.93-2.77-4.06,2.42-9.64,3.66-15.38-.91-0.51-.41-1-0.88-1.44-1.3-6.33-6.3-4.17-12.81-2.07-15.07,1.46-1.48-1.11-5.64-1.11-5.64s-7.46-11.08-12.56-17.76c-5.62-7.33-6.38-21.85-6.45-22l-0.07-.21c-5.68-6.74-6.27-8.81-8.22-12.1a31.58,31.58,0,0,0-4.39-5.33,27.41,27.41,0,0,1-2.64-2.9,1.2,1.2,0,0,1-.13-0.93c0.52-3.15,7.28-10.08,8.74-11,1.79-1.16,9.5-5.85,9.5-5.85s4.34-6.81,11.72-6.81c6.65,0,10.71-.37,22.19,3.37l4.77,1.52c8,2.56,15.05,5.59,20.66,8A93,93,0,0,0,287,392c9.9,2.6,27.36-5.41,31-8.79,6-5.5,8.65-9.18,8.69-12.2,0-1.7-.7-3.18-2.41-5-0.89-.82-2-2.35-3.48-3.8a5.66,5.66,0,0,0-.76-0.7c-16.76-17.8-13.85-29-13.84-29.14,0.72-8-3.87-13.15-8.8-18.47l-0.81-1a6,6,0,0,1-.58-0.65c7.14,1.17,12,4,25.94,5.59,7.91,0.85,5.42.78,11.74,0.62,8.71-.28,15.62-1,16.09-3-0.85-.72-4.7.21-23.2-6.86-8.57-3.29-9.92-3.77-15.37-5.58-7-2.36-14.59-5.63-14.59-5.63,30.19,7.92,40.06,11,53.87,11.21a43.21,43.21,0,0,0,10.38-.93c2-.35,8.05-1.73,8.75-3.84,0.21-.37-5.85,1-17-2.7-35.23-11.64-38.23-17.47-57.76-25.07-6.81-2.64-9-4.1-29.6-9.41-9.43-2.42-23.68-1-25.62.18-26.71-6.28-32.78-5.59-40.62-3.9,52.26-33.51,122.83-27.48,168.55,18.24a138.51,138.51,0,0,1,16.5,20l0.64,1A135.3,135.3,0,0,1,367.57,472.55ZM278.84,319.79c13.26,4.73,17.52,18.85,17.52,18.85-16.86,3.85-13.31-13.37-13.31-13.37Z"/></svg>