<svg id="Layer_1" data-name="Layer 1" xmlns="http://www.w3.org/2000/svg" viewBox="0 0 1677.53 753.7"><defs><style>.cls-1{fill:#2a3152;}.cls-2{fill:#e88124;}.cls-3{fill:#fff;}</style></defs><title>Binarycom_official_logo_</title><path class="cls-1" d="M740.94,283.18a40.28,40.28,0,0,0-12,1.66,39.82,39.82,0,0,0-9.7,4.47,40.34,40.34,0,0,0-7.73,6.45c-0.58.59-1.15,1.24-1.72,1.89V285.42H680.3V397.49h29.5V334.68c0-7.72,2-13.76,6-18s9.13-6.26,15.64-6.26,11.54,2,15.05,6,5.37,10.05,5.37,17.82v63.21H781.4V326.8c0-13.13-3.56-23.79-10.56-31.64S753.75,283.18,740.94,283.18Z"/><path class="cls-1" d="M849.71,284a93.54,93.54,0,0,0-23.17,2.49,118,118,0,0,0-18.66,6.64l-1.95.91,8.19,24.12,2.34-1a108.39,108.39,0,0,1,14.1-4.78,63.44,63.44,0,0,1,15.7-1.76c7.87,0,14,1.78,18.06,5.34,3.82,3.28,5.79,7.91,6,14.15a105.18,105.18,0,0,0-10.36-2.4,98.67,98.67,0,0,0-17-1.25,69.83,69.83,0,0,0-18,2.21,41.82,41.82,0,0,0-14.64,6.91,32.71,32.71,0,0,0-9.74,11.81A37.45,37.45,0,0,0,797.14,364v0.41a33.75,33.75,0,0,0,3.39,15.4,33,33,0,0,0,9,11.14,38.54,38.54,0,0,0,12.87,6.72,52.27,52.27,0,0,0,15.36,2.23c8.47,0,15.79-1.59,21.8-4.73a51.71,51.71,0,0,0,10.59-7.28v9.77h29.12v-66c0-14.95-4.12-26.76-12.27-35.1S866.29,284,849.71,284Zm-5.09,92.73a23.57,23.57,0,0,1-13.46-3.67c-3.31-2.27-4.93-5.49-4.93-9.83v-0.41a11.76,11.76,0,0,1,5.46-10.27c3.92-2.69,9.57-4,16.77-4a71,71,0,0,1,13.07,1.16,67.6,67.6,0,0,1,9.17,2.39v4.47a17.85,17.85,0,0,1-1.84,8.16,19.23,19.23,0,0,1-5.33,6.33,28,28,0,0,1-8.36,4.22A35.76,35.76,0,0,1,844.63,376.73Z"/><path class="cls-1" d="M1051.26,360.64l-28.79-75.23H991.11l45.72,109.68c-1.77,3.86-3.57,6.53-5.4,7.92a11.59,11.59,0,0,1-7.33,2.17,22.8,22.8,0,0,1-6.71-1,39.06,39.06,0,0,1-6.63-2.79l-2.2-1.17-10.27,22.61,1.94,1a61.31,61.31,0,0,0,12.15,5,53.15,53.15,0,0,0,14.38,1.81,41,41,0,0,0,12.29-1.73,30.91,30.91,0,0,0,10.16-5.62,39.78,39.78,0,0,0,8.24-9.84,95.53,95.53,0,0,0,6.88-14.41l43.93-113.62h-30.72Z"/><path class="cls-2" d="M1243.87,358.36a56.42,56.42,0,0,1-12,9.29,30.34,30.34,0,0,1-26.22.94,29.89,29.89,0,0,1-9.42-6.87,30.94,30.94,0,0,1-6.15-10.22,36.42,36.42,0,0,1-2.17-12.6v-0.42a35.65,35.65,0,0,1,2.17-12.39,31.73,31.73,0,0,1,6-10.13,28.89,28.89,0,0,1,9-6.78,26,26,0,0,1,11.36-2.5c5.79,0,10.69,1.16,14.57,3.43a55.46,55.46,0,0,1,11.6,9.28l1.74,1.78,18.41-19.86-1.45-1.6A62.48,62.48,0,0,0,1243,285.78c-7-3.54-15.9-5.34-26.38-5.34a57.32,57.32,0,0,0-53.9,35.94,59.55,59.55,0,0,0-4.37,22.53v0.41a59,59,0,0,0,4.37,22.46,56.85,56.85,0,0,0,12.17,18.45,58.66,58.66,0,0,0,18.42,12.39,58,58,0,0,0,23.1,4.57c10.79,0,19.88-2,27-5.88a70.28,70.28,0,0,0,18.71-15.05l1.51-1.66-18.15-17.85Z"/><path class="cls-2" d="M1375,297.49A57.52,57.52,0,0,0,1356.1,285a61.11,61.11,0,0,0-23.79-4.57,60.4,60.4,0,0,0-23.78,4.66,58.49,58.49,0,0,0-31.33,31.13,57.07,57.07,0,0,0-4.57,22.69v0.41a58.11,58.11,0,0,0,4.43,22.46,56.23,56.23,0,0,0,12.45,18.45,59.12,59.12,0,0,0,18.85,12.42,63.37,63.37,0,0,0,47.45-.14,57.94,57.94,0,0,0,31.44-31.12,56.1,56.1,0,0,0,4.56-22.48v-0.41A57.08,57.08,0,0,0,1375,297.49Zm-42.66,73.63a28.48,28.48,0,0,1-12-2.53,30.4,30.4,0,0,1-9.57-7,33.6,33.6,0,0,1-6.3-10.25,34.31,34.31,0,0,1-2.27-12.46v-0.42a37.39,37.39,0,0,1,2.08-12.43,28.94,28.94,0,0,1,6-10.05,29.66,29.66,0,0,1,9.46-6.79,31,31,0,0,1,24.51,0,30,30,0,0,1,9.59,6.89,31.41,31.41,0,0,1,6.28,10.22,35.06,35.06,0,0,1,2.27,12.57v0.41a36.27,36.27,0,0,1-2.07,12.32,31,31,0,0,1-6,10.1,30,30,0,0,1-9.42,6.86A29.69,29.69,0,0,1,1332.31,371.12Z"/><path class="cls-2" d="M1565.09,291.83c-7.06-7.56-17-11.41-29.46-11.41-8.52,0-16,1.87-22.27,5.56a55.22,55.22,0,0,0-13.86,11.69A36.23,36.23,0,0,0,1488.15,286c-5.65-3.73-12.69-5.62-20.82-5.62a39.33,39.33,0,0,0-11.74,1.66,35.44,35.44,0,0,0-9.53,4.51,42.4,42.4,0,0,0-7.4,6.28c-0.57.59-1.08,1.19-1.6,1.79v-12h-29.52V394.73h29.52V332.1c0-7.73,1.9-13.83,5.69-18.11s8.61-6.3,14.82-6.3,10.87,1.93,14.18,5.85,5.13,10,5.13,17.75v63.42h29.52V331.92c0-8,1.91-14.12,5.73-18.16s8.65-6.06,14.8-6.06,10.86,1.93,14.18,5.85,5.13,10.06,5.13,18v63.21h29.48V323.83C1575.72,310.12,1572.17,299.37,1565.09,291.83Z"/><rect class="cls-1" x="635.04" y="285.42" width="29.54" height="112.08"/><path class="cls-1" d="M666.16,259.19a16.34,16.34,0,1,0-16.36,16.34A16.36,16.36,0,0,0,666.16,259.19Z"/><path class="cls-2" d="M1144.34,380.84A16.35,16.35,0,1,0,1128,397.18,16.34,16.34,0,0,0,1144.34,380.84Z"/><path class="cls-1" d="M610.55,329.07a42,42,0,0,0-9.82-7.78,76.09,76.09,0,0,0-7.61-3.75l-1.66-.69,1.5-1c1.27-.82,2.55-1.72,3.8-2.69a35.3,35.3,0,0,0,7.21-7.37,36.51,36.51,0,0,0,5-9.7,39,39,0,0,0,1.91-12.74v-0.42a35.73,35.73,0,0,0-10.66-26.22c-9.16-9.22-22.83-13.89-40.59-13.89H490.16V397.49h71.57A91.7,91.7,0,0,0,585,394.72a55.77,55.77,0,0,0,18.24-8.12A38,38,0,0,0,615.1,373a41,41,0,0,0,4.18-18.7v-0.42A40.46,40.46,0,0,0,617,339.76,31.54,31.54,0,0,0,610.55,329.07Zm-90.86-23.31V269.57h36.65c8.2,0,14.53,1.58,18.77,4.76s6.16,7.33,6.16,12.93v0.42c0,6.44-2.29,11.06-7,14.17s-11.57,4.84-19.88,4.84H519.69v-1Zm70.07,45.81c0,6.41-2.35,11.1-7.12,14.28s-11.81,4.93-20.48,4.93H519.69V332.33h40.53c10.1,0,17.7,1.71,22.51,5s7,7.74,7,13.75v0.43Z"/><path class="cls-1" d="M980.29,283.38c-10-.42-18.47,2-25.12,7.23a46.06,46.06,0,0,0-10.63,11.75V285.42H915V397.49h29.53V354.28a57.13,57.13,0,0,1,2.53-17.9,34.09,34.09,0,0,1,7-12.45,29,29,0,0,1,10.77-7.34,37.89,37.89,0,0,1,14-2.48h3.63V283.48Z"/><path class="cls-1" d="M490.16,494.61l7.7-.72-0.07,2a12.4,12.4,0,0,0,1.54,6.24,10.19,10.19,0,0,0,5.16,4.36,21.53,21.53,0,0,0,8.57,1.55q7.07,0,10.77-3.09a9,9,0,0,0,3.7-7.07,7.5,7.5,0,0,0-1.95-5c-1.34-1.52-5-3.54-10.95-6.11a74.37,74.37,0,0,1-9.45-4.6,18.85,18.85,0,0,1-5.86-5.67,13.13,13.13,0,0,1-1.87-7,14.07,14.07,0,0,1,2.47-8.14,15.5,15.5,0,0,1,7.29-5.58A28.74,28.74,0,0,1,518,453.84a27.32,27.32,0,0,1,12.09,2.42,16.08,16.08,0,0,1,9.4,14.06c0,0.24,0,.64-0.06,1.2l-7.56.58a13.35,13.35,0,0,0-.45-3.86,10.8,10.8,0,0,0-2.49-4.16,12.25,12.25,0,0,0-4.61-2.68,20.09,20.09,0,0,0-6.61-1c-4.27,0-7.58,1-10,2.9a7.52,7.52,0,0,0-1.61,9.7,11.5,11.5,0,0,0,4.06,3.36c1.39,0.78,4.71,2.3,9.91,4.6a63.42,63.42,0,0,1,8.72,4.42,15,15,0,0,1,4.92,5.14,13.51,13.51,0,0,1,1.74,6.88,14.76,14.76,0,0,1-2.92,8.8,18.77,18.77,0,0,1-8,6.21,29.41,29.41,0,0,1-11.78,2.22c-6.65,0-12.07-1.45-16.28-4.35S490.19,502.13,490.16,494.61Z"/><path class="cls-1" d="M543.49,513.6l12.27-58.74H563l-4.66,22.57a29.54,29.54,0,0,1,7.51-5.66,16.18,16.18,0,0,1,7.18-1.68c3.53,0,6.25.91,8.21,2.77a9.68,9.68,0,0,1,2.94,7.36,46.74,46.74,0,0,1-1.31,8.25l-5.24,25.14h-7.26l5.41-25.77a48.81,48.81,0,0,0,1.15-7,4.38,4.38,0,0,0-1.44-3.4,5.82,5.82,0,0,0-4.14-1.32,15.12,15.12,0,0,0-13.08,7.69c-1.37,2.4-2.59,6.26-3.73,11.57l-3.82,18.28h-7.24Z"/><path class="cls-1" d="M619.49,508.32a30.16,30.16,0,0,1-7.28,4.74,18.51,18.51,0,0,1-7.46,1.5,13.09,13.09,0,0,1-9.48-3.46,11.75,11.75,0,0,1-3.61-8.88,12.12,12.12,0,0,1,1.63-6.32,12.62,12.62,0,0,1,4.31-4.39,18.52,18.52,0,0,1,6.55-2.4,76.07,76.07,0,0,1,9.29-.77c4.53-.18,7.81-0.65,9.81-1.44a20.26,20.26,0,0,0,.82-4.93,4.78,4.78,0,0,0-1.84-4c-1.71-1.34-4.13-2-7.39-2a12.72,12.72,0,0,0-7.46,2,11.24,11.24,0,0,0-4.23,5.76l-7.32-.66a18.8,18.8,0,0,1,7.1-9.69q4.87-3.36,12.27-3.35c5.28,0,9.41,1.25,12.5,3.75a8.9,8.9,0,0,1,3.54,7.29,37.72,37.72,0,0,1-1,7.9l-2.36,10.57a38.31,38.31,0,0,0-1.12,8.21,26.49,26.49,0,0,0,.89,5.78H620.3A23.6,23.6,0,0,1,619.49,508.32Zm2.68-16.27a18.59,18.59,0,0,1-3.26.91q-1.78.33-5.85,0.68a45.77,45.77,0,0,0-9,1.42,7.87,7.87,0,0,0-3.91,2.74,7.2,7.2,0,0,0-1.31,4.16,6.48,6.48,0,0,0,2.1,5,8.5,8.5,0,0,0,6,2,14.09,14.09,0,0,0,12.2-7.22A31.39,31.39,0,0,0,622.17,492.05Z"/><path class="cls-1" d="M638,513.6L647,471h6.41l-1.82,8.72a30,30,0,0,1,6.44-7.33,10.71,10.71,0,0,1,6.43-2.34,12.51,12.51,0,0,1,5.33,1.55l-3,6.75a6.82,6.82,0,0,0-4.12-1.37c-2.53,0-5.16,1.42-7.81,4.26s-4.76,7.91-6.3,15.27L645,513.6H638Z"/><path class="cls-1" d="M663.47,529.9L675.76,471h6.69L681.21,477a27.63,27.63,0,0,1,6.66-5.4,13.84,13.84,0,0,1,6.25-1.48,13.08,13.08,0,0,1,10.09,4.42c2.65,3,4,7.17,4,12.68a32.41,32.41,0,0,1-2.2,12.11,27.44,27.44,0,0,1-5.41,8.8,23.39,23.39,0,0,1-6.48,4.9,15.76,15.76,0,0,1-6.73,1.55q-7.65,0-11.88-7.78l-4.8,23.12h-7.24Zm14.33-33.7a22.8,22.8,0,0,0,.67,6.61,9.16,9.16,0,0,0,3.32,4.23,8.89,8.89,0,0,0,5.25,1.57q6.27,0,10.13-7A29.63,29.63,0,0,0,701,487.25c0-3.63-.86-6.41-2.57-8.39a8.24,8.24,0,0,0-6.45-2.93,9.58,9.58,0,0,0-5.15,1.46,15.45,15.45,0,0,0-4.37,4.36,26.14,26.14,0,0,0-3.36,7.12A25.12,25.12,0,0,0,677.8,496.21Z"/><path class="cls-1" d="M739.53,513.6l12.28-58.74h24.54c4.26,0,7.44.49,9.58,1.45a11.93,11.93,0,0,1,5.25,5,15.52,15.52,0,0,1,2.08,7.95,21.65,21.65,0,0,1-5.21,13.64,18,18,0,0,1-4.6,3.69,19.4,19.4,0,0,1-5,1.84,50.15,50.15,0,0,1-11.42,1.31H752.37l-5,23.86h-7.85Zm14.23-30.5H766.7q7.57,0,11.09-1.63a13.48,13.48,0,0,0,7.77-12,8.74,8.74,0,0,0-1.15-4.71,6.65,6.65,0,0,0-3.15-2.68c-1.37-.58-4-0.86-7.86-0.86H758.32Z"/><path class="cls-1" d="M795.1,513.6L804,471h6.41l-1.83,8.72a30.47,30.47,0,0,1,6.47-7.33,10.65,10.65,0,0,1,6.43-2.34,12.74,12.74,0,0,1,5.33,1.55l-3,6.75a6.89,6.89,0,0,0-4.13-1.37q-3.82,0-7.8,4.26c-2.65,2.84-4.76,7.91-6.28,15.27L802,513.6H795.1Z"/><path class="cls-1" d="M823.8,513.6L832.72,471h7.19l-8.84,42.57H823.8Zm10.59-50.54,1.73-8.21h7.22l-1.72,8.21h-7.23Z"/><path class="cls-1" d="M873.33,498.09l7.26,0.76q-2.74,8-7.74,11.84a18.36,18.36,0,0,1-11.45,3.86,14.87,14.87,0,0,1-11.25-4.49c-2.89-3-4.31-7.18-4.31-12.54a36.22,36.22,0,0,1,2.74-13.7,22.15,22.15,0,0,1,8-10.25,20.43,20.43,0,0,1,11.75-3.49c4.55,0,8.21,1.28,10.85,3.86s4,6,4,10.23l-7.11.46a8.72,8.72,0,0,0-2.37-6.32,8.23,8.23,0,0,0-6.05-2.28,11.06,11.06,0,0,0-7.56,2.77c-2.14,1.81-3.83,4.63-5.05,8.37A34.36,34.36,0,0,0,853.15,498c0,3.66.82,6.36,2.44,8.19a7.53,7.53,0,0,0,5.94,2.71,10.31,10.31,0,0,0,6.72-2.68A17.42,17.42,0,0,0,873.33,498.09Z"/><path class="cls-1" d="M917.9,499.14l7.06,0.7c-1,3.5-3.38,6.84-7,10a19.28,19.28,0,0,1-13,4.74,17.64,17.64,0,0,1-8.69-2.19,14.22,14.22,0,0,1-6-6.35,20.83,20.83,0,0,1-2.1-9.48A30.48,30.48,0,0,1,891.38,483a23.15,23.15,0,0,1,8.35-9.74,20.58,20.58,0,0,1,11.12-3.19c5.09,0,9.1,1.56,12.14,4.73s4.59,7.45,4.59,12.9a40.82,40.82,0,0,1-.57,6.42H895.66a15,15,0,0,0-.15,2.22c0,4,.9,7,2.74,9.14a8.54,8.54,0,0,0,6.69,3.14,13,13,0,0,0,7.35-2.44A16.16,16.16,0,0,0,917.9,499.14Zm-21.1-10.54h23.9c0-.75,0-1.29,0-1.59q0-5.49-2.71-8.38a9.2,9.2,0,0,0-7-2.9,13,13,0,0,0-8.49,3.2C900,481.07,898.05,484.29,896.81,488.59Z"/><path class="cls-1" d="M934.6,499l7.24-.42a13.41,13.41,0,0,0,1,5.31,7.81,7.81,0,0,0,3.55,3.63,12.77,12.77,0,0,0,6,1.37c3.22,0,5.63-.62,7.24-1.9a5.39,5.39,0,0,0,1-8.12c-1-1.11-3.43-2.48-7.24-4.14a70.69,70.69,0,0,1-7.36-3.48,11.86,11.86,0,0,1-4-3.88,9.63,9.63,0,0,1-1.34-5.09,11.25,11.25,0,0,1,4-8.65c2.7-2.4,6.43-3.6,11.25-3.6,5.3,0,9.39,1.23,12.18,3.7a12.77,12.77,0,0,1,4.35,9.77l-7.11.47a8,8,0,0,0-2.71-6.09c-1.71-1.5-4.16-2.26-7.26-2.26a8.68,8.68,0,0,0-5.84,1.74,4.78,4.78,0,0,0-2.1,3.71,4.48,4.48,0,0,0,1.8,3.51c0.8,0.71,2.87,1.76,6.21,3.22,5.56,2.4,9,4.28,10.49,5.68a10.85,10.85,0,0,1,3.45,8.11,11.39,11.39,0,0,1-1.95,6.21,13.12,13.12,0,0,1-5.92,4.86,22.19,22.19,0,0,1-9.4,1.83,21.06,21.06,0,0,1-12.54-3.65C936,508.48,934.4,504.53,934.6,499Z"/><path class="cls-1" d="M978.58,513.6l1.76-8.22h8.21l-1.8,8.22h-8.16Z"/><path class="cls-1" d="M1028.51,494.61l7.7-.72-0.1,2a12.83,12.83,0,0,0,1.55,6.24,10.27,10.27,0,0,0,5.17,4.36,21.65,21.65,0,0,0,8.61,1.55c4.68,0,8.27-1,10.73-3.09s3.71-4.41,3.71-7.07a7.55,7.55,0,0,0-1.94-5c-1.34-1.52-5-3.54-10.93-6.11a73.62,73.62,0,0,1-9.47-4.6,19,19,0,0,1-5.88-5.67,13.22,13.22,0,0,1-1.86-7,14.23,14.23,0,0,1,2.47-8.14,15.53,15.53,0,0,1,7.28-5.58,29,29,0,0,1,10.82-1.94,27.29,27.29,0,0,1,12.08,2.42,15.5,15.5,0,0,1,7.15,6.41,15.67,15.67,0,0,1,2.24,7.66c0,0.24,0,.64,0,1.2l-7.57.58a13,13,0,0,0-.45-3.86,10.22,10.22,0,0,0-2.48-4.16,12.18,12.18,0,0,0-4.6-2.68,20.23,20.23,0,0,0-6.61-1c-4.25,0-7.6,1-10,2.9a7.16,7.16,0,0,0-2.7,5.84,6.84,6.84,0,0,0,1.13,3.86,11.37,11.37,0,0,0,4,3.36c1.37,0.78,4.7,2.3,9.88,4.6a62.2,62.2,0,0,1,8.73,4.42,14.9,14.9,0,0,1,4.94,5.14,13.49,13.49,0,0,1,1.72,6.88,15,15,0,0,1-2.89,8.8,18.58,18.58,0,0,1-8,6.21,29.07,29.07,0,0,1-11.76,2.22c-6.62,0-12.06-1.45-16.28-4.35S1028.54,502.13,1028.51,494.61Z"/><path class="cls-1" d="M1081.81,513.6l8.89-42.57H1098l-1.5,7a30.07,30.07,0,0,1,7.26-6.25,14.62,14.62,0,0,1,6.9-1.7,10.26,10.26,0,0,1,6.64,2.1,10.07,10.07,0,0,1,3.51,5.85,23.69,23.69,0,0,1,6.84-6,15.34,15.34,0,0,1,7.55-2q5.34,0,8,2.51a9.29,9.29,0,0,1,2.66,7.1,38,38,0,0,1-.91,6.5l-5.75,27.41h-7.23l5.84-28.13a26.17,26.17,0,0,0,.76-4.93,4.25,4.25,0,0,0-1.32-3.29,5.4,5.4,0,0,0-3.73-1.19,12.9,12.9,0,0,0-6.6,2,13.7,13.7,0,0,0-5.22,5.14,33.48,33.48,0,0,0-3.27,9.79L1114,513.6h-7.26l6-28.75a23.45,23.45,0,0,0,.63-4.15,4.5,4.5,0,0,0-1.31-3.37,4.6,4.6,0,0,0-3.38-1.27,12.66,12.66,0,0,0-6.46,2,15.42,15.42,0,0,0-5.51,5.46,31.67,31.67,0,0,0-3.5,10l-4.2,20.11h-7.27Z"/><path class="cls-1" d="M1180.55,508.32a30.07,30.07,0,0,1-7.26,4.74,18.53,18.53,0,0,1-7.49,1.5,13,13,0,0,1-9.47-3.46,11.71,11.71,0,0,1-3.6-8.88,12.21,12.21,0,0,1,1.61-6.32,12.65,12.65,0,0,1,4.32-4.39,18.67,18.67,0,0,1,6.57-2.4,75.72,75.72,0,0,1,9.26-.77c4.55-.18,7.84-0.65,9.81-1.44a18.31,18.31,0,0,0,.85-4.93,4.85,4.85,0,0,0-1.84-4c-1.7-1.34-4.15-2-7.37-2a12.66,12.66,0,0,0-7.47,2,11.26,11.26,0,0,0-4.24,5.76l-7.32-.66a18.86,18.86,0,0,1,7.12-9.69q4.84-3.36,12.26-3.35,7.9,0,12.5,3.75a8.84,8.84,0,0,1,3.51,7.29,37.05,37.05,0,0,1-1,7.9L1189,499.61a38.45,38.45,0,0,0-1.13,8.21,27.31,27.31,0,0,0,.88,5.78h-7.32A24.19,24.19,0,0,1,1180.55,508.32Zm2.67-16.27a17.23,17.23,0,0,1-3.28.91c-1.14.22-3.09,0.45-5.78,0.68a44.71,44.71,0,0,0-9,1.42,7.71,7.71,0,0,0-3.93,2.74,7,7,0,0,0-1.32,4.16,6.54,6.54,0,0,0,2.11,5,8.41,8.41,0,0,0,6,2A13.8,13.8,0,0,0,1175,507a13.6,13.6,0,0,0,5.24-5.33A30.39,30.39,0,0,0,1183.22,492.05Z"/><path class="cls-1" d="M1199.16,513.6L1208,471h6.41l-1.8,8.72a30.7,30.7,0,0,1,6.42-7.33,10.75,10.75,0,0,1,6.46-2.34,12.74,12.74,0,0,1,5.32,1.55l-3,6.75a6.82,6.82,0,0,0-4.12-1.37c-2.55,0-5.15,1.42-7.85,4.26s-4.73,7.91-6.25,15.27L1206,513.6h-6.87Z"/><path class="cls-1" d="M1245.06,507.71l-1.19,5.93a20.75,20.75,0,0,1-5.09.67,10.41,10.41,0,0,1-6.88-2.13,5.34,5.34,0,0,1-1.9-4.36,44.7,44.7,0,0,1,1-6.45l5.17-24.72h-5.72l1.15-5.63h5.74l2.19-10.44,8.28-5L1244.61,471h7.15l-1.21,5.63h-7.09l-5,23.5a40.59,40.59,0,0,0-.89,5.37,2.61,2.61,0,0,0,.72,2,3.52,3.52,0,0,0,2.42.67A17.14,17.14,0,0,0,1245.06,507.71Z"/><path class="cls-1" d="M1292.88,513.6l10.89-52.06H1284.5l1.38-6.69h46.24l-1.4,6.69h-19.1l-10.85,52.06h-7.89Z"/><path class="cls-1" d="M1322.66,513.6l8.89-42.57h6.4l-1.79,8.72a30.73,30.73,0,0,1,6.44-7.33,10.72,10.72,0,0,1,6.46-2.34,12.55,12.55,0,0,1,5.3,1.55l-3,6.75a7,7,0,0,0-4.16-1.37q-3.81,0-7.79,4.26c-2.68,2.84-4.77,7.91-6.3,15.27l-3.62,17.07h-6.88Z"/><path class="cls-1" d="M1380.32,508.32a29.32,29.32,0,0,1-7.24,4.74,18.54,18.54,0,0,1-7.44,1.5,13,13,0,0,1-9.49-3.46,11.68,11.68,0,0,1-3.62-8.88,12.21,12.21,0,0,1,1.61-6.32,12.84,12.84,0,0,1,4.31-4.39,18.89,18.89,0,0,1,6.59-2.4,76.26,76.26,0,0,1,9.25-.77c4.58-.18,7.84-0.65,9.81-1.44a18.22,18.22,0,0,0,.84-4.93,4.78,4.78,0,0,0-1.84-4c-1.7-1.34-4.16-2-7.36-2a12.74,12.74,0,0,0-7.49,2,11.52,11.52,0,0,0-4.23,5.76l-7.35-.66a19.11,19.11,0,0,1,7.12-9.69q4.87-3.36,12.28-3.35c5.24,0,9.42,1.25,12.49,3.75a8.82,8.82,0,0,1,3.52,7.29,36.24,36.24,0,0,1-1,7.9l-2.37,10.57a41.85,41.85,0,0,0-1.13,8.21,28.22,28.22,0,0,0,.88,5.78h-7.3A28.21,28.21,0,0,1,1380.32,508.32Zm2.69-16.27a17.23,17.23,0,0,1-3.26.91q-1.75.33-5.81,0.68a43.78,43.78,0,0,0-8.93,1.42,7.79,7.79,0,0,0-4,2.74,7.19,7.19,0,0,0-1.3,4.16,6.62,6.62,0,0,0,2.1,5,8.45,8.45,0,0,0,6,2,13.76,13.76,0,0,0,6.94-1.89,14,14,0,0,0,5.29-5.33A32.81,32.81,0,0,0,1383,492.05Z"/><path class="cls-1" d="M1427.61,507.43c-4.15,4.75-8.47,7.12-13,7.12a12.92,12.92,0,0,1-10.08-4.47c-2.71-3-4-7.3-4-13a31.64,31.64,0,0,1,3.16-14.21,24.32,24.32,0,0,1,8-9.63,16.82,16.82,0,0,1,9.56-3.21c5.32,0,9.29,2.52,12,7.64l4.82-22.87h7.23L1433,513.59h-6.7Zm-19.86-11.66a21.73,21.73,0,0,0,.87,7,9.36,9.36,0,0,0,3,4.28,7.91,7.91,0,0,0,5.11,1.68c3.26,0,6.25-1.68,8.91-5.12,3.56-4.54,5.38-10.14,5.38-16.84,0-3.35-.87-6-2.68-7.88a8.69,8.69,0,0,0-6.65-2.84,10.07,10.07,0,0,0-4.75,1.15,13.93,13.93,0,0,0-4.24,4,24.36,24.36,0,0,0-3.53,7.06A24.08,24.08,0,0,0,1407.75,495.77Z"/><path class="cls-1" d="M1445.91,513.6l8.9-42.57H1462l-8.86,42.57h-7.27Zm10.59-50.54,1.71-8.21h7.22l-1.71,8.21h-7.22Z"/><path class="cls-1" d="M1466.08,513.6L1475,471h6.56l-1.56,7.44a34.77,34.77,0,0,1,8-6.38,15.82,15.82,0,0,1,7.62-2,11.37,11.37,0,0,1,8.11,2.81,9.84,9.84,0,0,1,2.92,7.48,42.59,42.59,0,0,1-1,7.44l-5.43,25.77H1493l5.64-27a31.56,31.56,0,0,0,.86-5.82,4.33,4.33,0,0,0-1.5-3.43,5.9,5.9,0,0,0-4.22-1.32,14.24,14.24,0,0,0-9.92,4c-2.88,2.67-5,7.24-6.39,13.74l-4.12,19.79h-7.24Z"/><path class="cls-1" d="M1513,517.43l7.35,0.7a7.11,7.11,0,0,0,.58,3.73,4.5,4.5,0,0,0,2.14,1.91,12.33,12.33,0,0,0,5.1.87c4.41,0,7.53-1.12,9.48-3.39,1.24-1.51,2.4-4.86,3.48-9.95l0.71-3.44c-3.75,3.83-7.79,5.73-12,5.73a14.07,14.07,0,0,1-10.8-4.75c-2.92-3.17-4.34-7.66-4.34-13.45a26.14,26.14,0,0,1,3.42-13.19,25.65,25.65,0,0,1,8.14-9.07,17.79,17.79,0,0,1,9.73-3.05c5.61,0,9.88,2.63,12.91,7.93l1.44-7h6.65l-8.58,41.09a33.72,33.72,0,0,1-3.69,10.57,15.25,15.25,0,0,1-6.32,5.86,20.41,20.41,0,0,1-9.41,2.08,26,26,0,0,1-8.85-1.33,11,11,0,0,1-5.51-3.88,9.83,9.83,0,0,1-1.83-5.82A17,17,0,0,1,1513,517.43Zm9.07-22.67a18.5,18.5,0,0,0,.83,6.58,10,10,0,0,0,3.41,4.69,8.12,8.12,0,0,0,5,1.65,12.31,12.31,0,0,0,7.1-2.5,17.51,17.51,0,0,0,5.72-7.75,26.71,26.71,0,0,0,2.18-10,11.61,11.61,0,0,0-2.93-8.36,9.34,9.34,0,0,0-7.16-3.1,10.23,10.23,0,0,0-5.16,1.42,15.92,15.92,0,0,0-4.63,4.32,21.22,21.22,0,0,0-3.23,6.93A25.51,25.51,0,0,0,1522,494.76Z"/><path class="cls-1" d="M1562.65,513.6l1.72-8.22h8.2l-1.76,8.22h-8.16Z"/><path class="cls-3" d="M392.9,256c-66.51-66.55-174.69-66.55-241.22,0s-66.5,174.76,0,241.28,174.75,66.54,241.21,0S459.48,322.48,392.9,256Z"/><path class="cls-1" d="M224.76,424.12s2,14.63,14.27,21.41l-3.28-6.11S242,423,224.76,424.12Z"/><path class="cls-1" d="M384.27,267.38c-61.76-61.78-162.19-61.78-223.94,0s-61.75,162.26,0,224,162.21,61.75,223.94,0S446.09,329.13,384.27,267.38ZM367.9,475c-1.73,1.69-3.42,3.34-5.17,4.92-38,31-67.35,15.58-67.68,15.58-19.86-4-29.72-4-35.29-7.75-1.4-.94-5.89-3.35-6.92-2.77-4.06,2.42-9.63,3.65-15.37-.91-0.51-.41-1-0.88-1.44-1.3-6.32-6.3-4.17-12.8-2.07-15.06,1.45-1.48-1.11-5.63-1.11-5.63s-7.46-11.08-12.55-17.74c-5.61-7.32-6.38-21.84-6.44-22l-0.07-.21c-5.67-6.73-6.26-8.81-8.22-12.09a31.56,31.56,0,0,0-4.39-5.33,27.39,27.39,0,0,1-2.64-2.9,1.2,1.2,0,0,1-.13-0.93c0.52-3.14,7.27-10.08,8.73-11,1.79-1.16,9.49-5.84,9.49-5.84s4.34-6.81,11.71-6.81c6.65,0,10.7-.37,22.18,3.37l4.77,1.52c8,2.56,15,5.58,20.65,8a92.92,92.92,0,0,0,11.47,4.47c9.89,2.6,27.34-5.4,31-8.78,6-5.49,8.65-9.18,8.68-12.19,0-1.7-.7-3.17-2.41-5-0.89-.82-2-2.35-3.48-3.8a5.65,5.65,0,0,0-.76-0.7C303.7,346.29,306.6,335.14,306.62,335c0.72-8-3.87-13.14-8.79-18.46l-0.81-1a6,6,0,0,1-.58-0.65c7.13,1.17,12,4,25.92,5.59,7.91,0.85,5.41.78,11.73,0.62,8.71-.28,15.61-1,16.08-3-0.85-.72-4.7.21-23.19-6.85-8.56-3.28-9.91-3.77-15.36-5.57C304.62,303.26,297,300,297,300c30.17,7.91,40,11,53.83,11.2a43.18,43.18,0,0,0,10.37-.93c2-.35,8-1.73,8.74-3.84,0.21-.37-5.84,1-17-2.7-35.21-11.64-38.21-17.45-57.72-25-6.81-2.64-9-4.09-29.58-9.4-9.42-2.42-23.67-1-25.6.18-26.69-6.27-32.76-5.59-40.59-3.9,52.22-33.49,122.75-27.46,168.43,18.23a138.42,138.42,0,0,1,16.49,20l0.64,1A135.21,135.21,0,0,1,367.9,475ZM279.24,322.36c13.25,4.72,17.51,18.83,17.51,18.83-16.85,3.85-13.3-13.36-13.3-13.36Z"/></svg>