<svg xmlns="http://www.w3.org/2000/svg" width="347" height="68" style="background:#000">
  <defs>
    <linearGradient id="a" x1="50%" x2="50%" y1="0%" y2="100%">
      <stop offset="0%" stop-color="#FF6544"/>
      <stop offset="100%" stop-color="#FF4449"/>
    </linearGradient>
  </defs>
  <g fill="none" fill-rule="evenodd">
    <path fill="#000" d="M0 0h347v68H0z"/>
    <g fill-rule="nonzero">
      <path fill="url(#a)" d="M6.13 0v.03L16.314 13.5 0 26.97V27h16.474c4.807 0 8.979-3.373 10.06-8.136l1.363-6.008a10.63 10.63 0 00-1.98-8.894A10.261 10.261 0 0017.84 0H6.13z" transform="translate(31 21)"/>
      <path fill="#B51A31" d="M47.308 34.527L40.144 48H31z"/>
      <path fill="#FFF" d="M170.883 21l3.62 18.88L184.67 21h6.254L175.58 48h-5.123l-5.977-27h6.402zm-89.952 0c8.279 0 13.01 5.782 11.702 13.327l-.013.076C91.31 41.95 84.57 47.81 76.282 47.81H66L70.647 21h10.284zm57.22 0c3.352 0 5.784.959 7.203 2.72 1.21 1.492 1.64 3.6 1.197 6.127l-.013.077c-.742 4.326-3.51 7.047-7.082 8.311l4.778 9.574h-6.78l-6.31-13.793h4.364c2.826 0 4.712-1.541 5.103-3.791l.014-.076c.438-2.523-1.07-3.825-3.895-3.825h-5.754l-3.727 21.485h-5.8L126.096 21h12.054zm21.62 0l-4.647 26.809h-5.802L153.972 21h5.8zm-39.4 0l-.912 5.247h-14.123l-.945 5.438h9.118l-.91 5.247h-9.117l-.976 5.625h14.313l-.91 5.247H95.834L100.481 21h19.89zm-40.363 5.324h-4.481l-2.804 16.161h4.484c4.744 0 8.51-3.255 9.334-8.005l.013-.077c.824-4.747-1.799-8.08-6.546-8.08z"/>
    </g>
    <path stroke="#FFF" d="M210.5 21v27"/>
    <path fill="#FF444F" fill-rule="nonzero" d="M229.74 41l.5-1.66h2.33l.5 1.66h1.58l-2.27-6.98h-1.88L228.2 41h1.54zm2.46-2.95h-1.6l.77-2.65h.05l.78 2.65zm6.05 2.95c.46 0 .88-.073 1.26-.22a2.54 2.54 0 00.97-.655c.267-.29.473-.653.62-1.09.147-.437.22-.945.22-1.525s-.073-1.088-.22-1.525a2.993 2.993 0 00-.62-1.09 2.54 2.54 0 00-.97-.655c-.38-.147-.8-.22-1.26-.22h-2.63V41h2.63zm0-1.35h-1.11v-4.28h1.11c.453 0 .81.127 1.07.38s.39.66.39 1.22v1.08c0 .56-.13.967-.39 1.22s-.617.38-1.07.38zm5.77 1.35v-4.65h.03l.53 1.1 1.33 2.46 1.36-2.47.51-1.02h.03V41h1.43v-6.98h-1.62l-1.69 3.27h-.02l-1.71-3.27h-1.61V41h1.43zm9.81 0v-1.21h-.9v-4.56h.9v-1.21h-3.32v1.21h.9v4.56h-.9V41h3.32zm2.7 0v-4.7h.03l.67 1.4 1.91 3.3h1.66v-6.98h-1.43v4.7h-.03l-.67-1.4-1.91-3.3h-1.66V41h1.43zm8.86 0v-1.21h-.9v-4.56h.9v-1.21h-3.32v1.21h.9v4.56h-.9V41h3.32zm3.53.12c.433 0 .82-.055 1.16-.165.34-.11.625-.265.855-.465.23-.2.405-.44.525-.72.12-.28.18-.587.18-.92 0-.607-.173-1.075-.52-1.405-.347-.33-.88-.552-1.6-.665l-.69-.11c-.293-.047-.505-.123-.635-.23-.13-.107-.195-.28-.195-.52 0-.213.083-.38.25-.5.167-.12.42-.18.76-.18.36 0 .658.062.895.185s.438.282.605.475l1.01-1.02a2.823 2.823 0 00-1.03-.73c-.4-.167-.863-.25-1.39-.25-.413 0-.782.052-1.105.155a2.403 2.403 0 00-.82.435c-.223.187-.395.41-.515.67-.12.26-.18.547-.18.86 0 .587.172 1.057.515 1.41s.885.577 1.625.67l.69.09c.327.047.543.135.65.265a.74.74 0 01.16.485c0 .253-.09.457-.27.61-.18.153-.457.23-.83.23-.693 0-1.277-.267-1.75-.8l-1 1.01c.3.333.663.605 1.09.815.427.21.947.315 1.56.315zm6.89-.12v-5.63h1.89v-1.35h-5.3v1.35h1.89V41h1.52zm4.45 0v-2.56h1.09l1.22 2.56h1.69l-1.37-2.74c.427-.16.745-.417.955-.77.21-.353.315-.767.315-1.24 0-.333-.05-.637-.15-.91a2.056 2.056 0 00-.425-.705 1.863 1.863 0 00-.665-.455c-.26-.107-.55-.16-.87-.16h-3.31V41h1.52zm1.6-3.84h-1.6v-1.82h1.6c.227 0 .405.058.535.175.13.117.195.288.195.515v.44c0 .227-.065.398-.195.515-.13.117-.308.175-.535.175zm4.59 3.84l.5-1.66h2.33l.5 1.66h1.58l-2.27-6.98h-1.88l-2.3 6.98h1.54zm2.46-2.95h-1.6l.77-2.65h.05l.78 2.65zm6.33 2.95v-5.63h1.89v-1.35h-5.3v1.35h1.89V41h1.52zm5.98 0v-1.21h-.9v-4.56h.9v-1.21h-3.32v1.21h.9v4.56h-.9V41h3.32zm4.07.12c.46 0 .88-.077 1.26-.23.38-.153.703-.382.97-.685.267-.303.473-.68.62-1.13.147-.45.22-.972.22-1.565s-.073-1.115-.22-1.565a3.178 3.178 0 00-.62-1.13 2.537 2.537 0 00-.97-.685c-.38-.153-.8-.23-1.26-.23-.46 0-.88.077-1.26.23-.38.153-.703.382-.97.685-.267.303-.473.68-.62 1.13-.147.45-.22.972-.22 1.565s.073 1.115.22 1.565c.147.45.353.827.62 1.13.267.303.59.532.97.685.38.153.8.23 1.26.23zm0-1.35c-.46 0-.818-.15-1.075-.45-.257-.3-.385-.73-.385-1.29v-1.04c0-.56.128-.99.385-1.29.257-.3.615-.45 1.075-.45.46 0 .818.15 1.075.45.257.3.385.73.385 1.29v1.04c0 .56-.128.99-.385 1.29-.257.3-.615.45-1.075.45zm5.77 1.23v-4.7h.03l.67 1.4 1.91 3.3h1.66v-6.98h-1.43v4.7h-.03l-.67-1.4-1.91-3.3h-1.66V41h1.43zm-79.47 14.12c.647 0 1.182-.145 1.605-.435.423-.29.765-.702 1.025-1.235l-1.24-.72a1.853 1.853 0 01-.495.735c-.223.203-.522.305-.895.305-.447 0-.805-.145-1.075-.435-.27-.29-.405-.712-.405-1.265v-1.12c0-.553.135-.975.405-1.265.27-.29.628-.435 1.075-.435.38 0 .668.088.865.265.197.177.342.412.435.705l1.31-.68c-.253-.567-.59-.982-1.01-1.245-.42-.263-.953-.395-1.6-.395-.473 0-.9.08-1.28.24-.38.16-.703.395-.97.705-.267.31-.473.693-.62 1.15-.147.457-.22.978-.22 1.565 0 .593.073 1.112.22 1.555.147.443.353.813.62 1.11.267.297.59.52.97.67.38.15.807.225 1.28.225zm6.49 0c.46 0 .88-.077 1.26-.23.38-.153.703-.382.97-.685.267-.303.473-.68.62-1.13.147-.45.22-.972.22-1.565s-.073-1.115-.22-1.565a3.178 3.178 0 00-.62-1.13 2.537 2.537 0 00-.97-.685c-.38-.153-.8-.23-1.26-.23-.46 0-.88.077-1.26.23-.38.153-.703.382-.97.685-.267.303-.473.68-.62 1.13-.147.45-.22.972-.22 1.565s.073 1.115.22 1.565c.147.45.353.827.62 1.13.267.303.59.532.97.685.38.153.8.23 1.26.23zm0-1.35c-.46 0-.818-.15-1.075-.45-.257-.3-.385-.73-.385-1.29v-1.04c0-.56.128-.99.385-1.29.257-.3.615-.45 1.075-.45.46 0 .818.15 1.075.45.257.3.385.73.385 1.29v1.04c0 .56-.128.99-.385 1.29-.257.3-.615.45-1.075.45zm5.77 1.23v-4.7h.03l.67 1.4 1.91 3.3h1.66v-6.98h-1.43v4.7h-.03l-.67-1.4-1.91-3.3h-1.66V55h1.43zm8.07.12c.433 0 .82-.055 1.16-.165.34-.11.625-.265.855-.465.23-.2.405-.44.525-.72.12-.28.18-.587.18-.92 0-.607-.173-1.075-.52-1.405-.347-.33-.88-.552-1.6-.665l-.69-.11c-.293-.047-.505-.123-.635-.23-.13-.107-.195-.28-.195-.52 0-.213.083-.38.25-.5.167-.12.42-.18.76-.18.36 0 .658.062.895.185s.438.282.605.475l1.01-1.02a2.823 2.823 0 00-1.03-.73c-.4-.167-.863-.25-1.39-.25-.413 0-.782.052-1.105.155a2.403 2.403 0 00-.82.435c-.223.187-.395.41-.515.67-.12.26-.18.547-.18.86 0 .587.172 1.057.515 1.41s.885.577 1.625.67l.69.09c.327.047.543.135.65.265a.74.74 0 01.16.485c0 .253-.09.457-.27.61-.18.153-.457.23-.83.23-.693 0-1.277-.267-1.75-.8l-1 1.01c.3.333.663.605 1.09.815.427.21.947.315 1.56.315zm6.78 0c.46 0 .88-.077 1.26-.23.38-.153.703-.382.97-.685.267-.303.473-.68.62-1.13.147-.45.22-.972.22-1.565s-.073-1.115-.22-1.565a3.178 3.178 0 00-.62-1.13 2.537 2.537 0 00-.97-.685c-.38-.153-.8-.23-1.26-.23-.46 0-.88.077-1.26.23-.38.153-.703.382-.97.685-.267.303-.473.68-.62 1.13-.147.45-.22.972-.22 1.565s.073 1.115.22 1.565c.147.45.353.827.62 1.13.267.303.59.532.97.685.38.153.8.23 1.26.23zm0-1.35c-.46 0-.818-.15-1.075-.45-.257-.3-.385-.73-.385-1.29v-1.04c0-.56.128-.99.385-1.29.257-.3.615-.45 1.075-.45.46 0 .818.15 1.075.45.257.3.385.73.385 1.29v1.04c0 .56-.128.99-.385 1.29-.257.3-.615.45-1.075.45zm8.52 1.23v-1.35h-2.66v-5.63h-1.52V55h4.18zm5.87 0v-1.35h-3.23v-1.51h2.77V50.8h-2.77v-1.43h3.23v-1.35h-4.75V55h4.75z"/>
    <path fill="#FFF" fill-rule="nonzero" d="M234.258 25c.364 0 .7-.072 1.008-.217a2.45 2.45 0 00.798-.595c.224-.252.399-.548.525-.889.126-.34.189-.702.189-1.085 0-.42-.072-.775-.217-1.064a2.202 2.202 0 00-.539-.707 2.092 2.092 0 00-.707-.399 2.362 2.362 0 00-.735-.126v-.084c.252-.01.488-.054.707-.133.22-.08.41-.203.574-.371.163-.168.294-.383.392-.644.098-.261.147-.579.147-.952 0-.756-.226-1.363-.679-1.82-.453-.457-1.085-.686-1.897-.686h-4.746V25h5.18zm-.938-5.768h-2.114V17.02h2.114c.28 0 .5.08.658.238.159.159.238.378.238.658v.42c0 .28-.08.5-.238.658-.159.159-.378.238-.658.238zm.336 3.976h-2.45v-2.24h2.45c.28 0 .502.077.665.231.163.154.245.371.245.651v.476c0 .28-.082.497-.245.651-.163.154-.385.231-.665.231zm6.44 1.96c.56 0 1.031-.124 1.414-.371s.63-.609.742-1.085h.084c.065.392.222.705.469.938.247.233.558.35.931.35h1.148v-1.61h-.686v-3.22c0-.877-.261-1.545-.784-2.002-.523-.457-1.307-.686-2.352-.686-.775 0-1.388.124-1.841.371-.453.247-.828.59-1.127 1.029l1.232 1.092a2.63 2.63 0 01.602-.602c.243-.177.57-.266.98-.266.439 0 .751.105.938.315.187.21.28.492.28.847v.462h-1.162c-.97 0-1.738.189-2.303.567-.565.378-.847.954-.847 1.729 0 .644.196 1.162.588 1.554.392.392.957.588 1.694.588zm.77-1.442c-.308 0-.546-.063-.714-.189-.168-.126-.252-.324-.252-.595v-.21c0-.55.406-.826 1.218-.826h1.008v.868c0 .336-.124.579-.371.728-.247.15-.544.224-.889.224zm8.372 1.442c.728 0 1.346-.163 1.855-.49.509-.327.884-.84 1.127-1.54l-1.61-.7c-.103.327-.264.59-.483.791-.22.2-.516.301-.889.301-.42 0-.737-.135-.952-.406-.215-.27-.322-.64-.322-1.106v-1.372c0-.467.107-.838.322-1.113.215-.275.532-.413.952-.413.364 0 .649.098.854.294.205.196.34.434.406.714l1.68-.728c-.215-.607-.572-1.078-1.071-1.414-.5-.336-1.122-.504-1.869-.504-.55 0-1.04.089-1.47.266-.43.177-.789.434-1.078.77-.29.336-.509.74-.658 1.211a5.25 5.25 0 00-.224 1.589c0 .588.075 1.12.224 1.596.15.476.369.88.658 1.211.29.331.649.588 1.078.77.43.182.92.273 1.47.273zM255.58 25v-2.072l.924-1.036L258.156 25h2.464l-2.73-4.536 2.45-2.814h-2.296l-1.47 1.75-.91 1.358h-.084V14.64h-2.072V25h2.072zm12.292.168c.541 0 1.024-.089 1.449-.266a2.891 2.891 0 001.078-.77 3.51 3.51 0 00.679-1.218 5.028 5.028 0 00.238-1.596c0-.588-.08-1.12-.238-1.596a3.435 3.435 0 00-.679-1.211 2.927 2.927 0 00-1.078-.763 3.731 3.731 0 00-1.449-.266c-.541 0-1.024.089-1.449.266a2.927 2.927 0 00-1.078.763c-.294.331-.52.735-.679 1.211a5.028 5.028 0 00-.238 1.596c0 .588.08 1.12.238 1.596.159.476.385.882.679 1.218.294.336.653.593 1.078.77.425.177.908.266 1.449.266zm0-1.638c-.41 0-.728-.126-.952-.378-.224-.252-.336-.611-.336-1.078v-1.498c0-.467.112-.826.336-1.078.224-.252.541-.378.952-.378.41 0 .728.126.952.378.224.252.336.611.336 1.078v1.498c0 .467-.112.826-.336 1.078-.224.252-.541.378-.952.378zm7.35 1.47v-5.74h1.47v-1.61h-1.47v-1.4h1.47v-1.61h-1.344c-.719 0-1.265.18-1.638.539-.373.36-.56.894-.56 1.603v.868h-1.036v1.61h1.036V25h2.072zm8.708-8.134c.42 0 .726-.096.917-.287a.995.995 0 00.287-.735v-.308a.995.995 0 00-.287-.735c-.191-.191-.497-.287-.917-.287-.42 0-.726.096-.917.287a.995.995 0 00-.287.735v.308c0 .299.096.544.287.735.191.191.497.287.917.287zM280.276 25v-5.74h2.618V25h2.072v-7.35h-4.69v-1.4h1.47v-1.61h-1.344c-.719 0-1.265.18-1.638.539-.373.36-.56.894-.56 1.603v.868h-1.036v1.61h1.036V25h2.072zm9.59.168c.728 0 1.346-.163 1.855-.49.509-.327.884-.84 1.127-1.54l-1.61-.7c-.103.327-.264.59-.483.791-.22.2-.516.301-.889.301-.42 0-.737-.135-.952-.406-.215-.27-.322-.64-.322-1.106v-1.372c0-.467.107-.838.322-1.113.215-.275.532-.413.952-.413.364 0 .649.098.854.294.205.196.34.434.406.714l1.68-.728c-.215-.607-.572-1.078-1.071-1.414-.5-.336-1.122-.504-1.869-.504-.55 0-1.04.089-1.47.266-.43.177-.789.434-1.078.77-.29.336-.509.74-.658 1.211a5.25 5.25 0 00-.224 1.589c0 .588.075 1.12.224 1.596.15.476.369.88.658 1.211.29.331.649.588 1.078.77.43.182.92.273 1.47.273zm7.336 0c.672 0 1.272-.107 1.799-.322.527-.215.954-.513 1.281-.896l-1.036-1.288c-.233.243-.485.45-.756.623-.27.173-.62.259-1.05.259-.56 0-.97-.142-1.232-.427-.261-.285-.392-.67-.392-1.155v-.112h4.718v-.616c0-.495-.063-.968-.189-1.421a3.328 3.328 0 00-.602-1.197 2.947 2.947 0 00-1.064-.826c-.434-.205-.954-.308-1.561-.308-.55 0-1.04.091-1.47.273-.43.182-.791.441-1.085.777-.294.336-.516.74-.665 1.211a5.2 5.2 0 00-.224 1.575c0 .588.077 1.12.231 1.596.154.476.383.88.686 1.211.303.331.674.588 1.113.77.439.182.938.273 1.498.273zm1.19-4.536h-2.576v-.112c0-.457.119-.824.357-1.099s.567-.413.987-.413c.42 0 .73.138.931.413.2.275.301.637.301 1.085v.126z"/>
  </g>
</svg>
