<?xml version="1.0" encoding="utf-8"?>
<!-- Generator: Adobe Illustrator 27.6.0, SVG Export Plug-In . SVG Version: 6.00 Build 0)  -->
<svg version="1.1" id="Layer_1" xmlns="http://www.w3.org/2000/svg" xmlns:xlink="http://www.w3.org/1999/xlink" x="0px" y="0px" viewBox="0 0 347 68" style="enable-background:new 0 0 347 68;" xml:space="preserve">
  <style type="text/css">
    .st0 {
      fill-rule: evenodd;
      clip-rule: evenodd;
    }

    .st1 {
      fill: none;
      stroke: #FFFFFF;
    }

    .st2 {
      fill: #FFFFFF;
    }

    .st3 {
      fill: none;
    }
  </style>
  <path class="st0" d="M0,0h347v68H0V0z" />
  <g>
    <path class="st1" d="M183.9,10.1v47.8" />
    <path class="st2" d="M203.2,40.5l0.5-1.7h2.3l0.5,1.7h1.6l-2.3-7h-1.9l-2.3,7H203.2z M205.6,37.5H204l0.8-2.6h0.1L205.6,37.5z
		 M211.7,40.5c0.5,0,0.9-0.1,1.3-0.2c0.4-0.1,0.7-0.4,1-0.7c0.3-0.3,0.5-0.7,0.6-1.1c0.1-0.4,0.2-0.9,0.2-1.5c0-0.6-0.1-1.1-0.2-1.5
		c-0.1-0.4-0.3-0.8-0.6-1.1c-0.3-0.3-0.6-0.5-1-0.7c-0.4-0.1-0.8-0.2-1.3-0.2H209v7H211.7z M211.7,39.1h-1.1v-4.3h1.1
		c0.5,0,0.8,0.1,1.1,0.4c0.3,0.3,0.4,0.7,0.4,1.2v1.1c0,0.6-0.1,1-0.4,1.2C212.5,39,212.1,39.1,211.7,39.1z M217.4,40.5v-4.7h0
		l0.5,1.1l1.3,2.5l1.4-2.5l0.5-1h0v4.6h1.4v-7H221l-1.7,3.3h0l-1.7-3.3H216v7H217.4z M227.2,40.5v-1.2h-0.9v-4.6h0.9v-1.2h-3.3v1.2
		h0.9v4.6h-0.9v1.2H227.2z M229.9,40.5v-4.7h0l0.7,1.4l1.9,3.3h1.7v-7h-1.4v4.7h0l-0.7-1.4l-1.9-3.3h-1.7v7H229.9z M238.8,40.5v-1.2
		h-0.9v-4.6h0.9v-1.2h-3.3v1.2h0.9v4.6h-0.9v1.2H238.8z M242.3,40.6c0.4,0,0.8-0.1,1.2-0.2c0.3-0.1,0.6-0.3,0.9-0.5
		c0.2-0.2,0.4-0.4,0.5-0.7s0.2-0.6,0.2-0.9c0-0.6-0.2-1.1-0.5-1.4c-0.3-0.3-0.9-0.6-1.6-0.7l-0.7-0.1c-0.3,0-0.5-0.1-0.6-0.2
		c-0.1-0.1-0.2-0.3-0.2-0.5c0-0.2,0.1-0.4,0.2-0.5c0.2-0.1,0.4-0.2,0.8-0.2c0.4,0,0.7,0.1,0.9,0.2s0.4,0.3,0.6,0.5l1-1
		c-0.3-0.3-0.6-0.6-1-0.7c-0.4-0.2-0.9-0.2-1.4-0.2c-0.4,0-0.8,0.1-1.1,0.2c-0.3,0.1-0.6,0.2-0.8,0.4c-0.2,0.2-0.4,0.4-0.5,0.7
		s-0.2,0.5-0.2,0.9c0,0.6,0.2,1.1,0.5,1.4c0.3,0.4,0.9,0.6,1.6,0.7l0.7,0.1c0.3,0,0.5,0.1,0.6,0.3c0.1,0.1,0.2,0.3,0.2,0.5
		c0,0.3-0.1,0.5-0.3,0.6s-0.5,0.2-0.8,0.2c-0.7,0-1.3-0.3-1.8-0.8l-1,1c0.3,0.3,0.7,0.6,1.1,0.8C241.2,40.5,241.7,40.6,242.3,40.6z
		 M249.2,40.5v-5.6h1.9v-1.3h-5.3v1.3h1.9v5.6H249.2z M253.7,40.5v-2.6h1.1l1.2,2.6h1.7l-1.4-2.7c0.4-0.2,0.7-0.4,1-0.8
		c0.2-0.4,0.3-0.8,0.3-1.2c0-0.3-0.1-0.6-0.1-0.9c-0.1-0.3-0.2-0.5-0.4-0.7c-0.2-0.2-0.4-0.4-0.7-0.5c-0.3-0.1-0.6-0.2-0.9-0.2h-3.3
		v7H253.7z M255.3,36.7h-1.6v-1.8h1.6c0.2,0,0.4,0.1,0.5,0.2c0.1,0.1,0.2,0.3,0.2,0.5V36c0,0.2-0.1,0.4-0.2,0.5
		C255.7,36.6,255.5,36.7,255.3,36.7z M259.9,40.5l0.5-1.7h2.3l0.5,1.7h1.6l-2.3-7h-1.9l-2.3,7H259.9z M262.3,37.5h-1.6l0.8-2.6h0.1
		L262.3,37.5z M268.7,40.5v-5.6h1.9v-1.3h-5.3v1.3h1.9v5.6H268.7z M274.6,40.5v-1.2h-0.9v-4.6h0.9v-1.2h-3.3v1.2h0.9v4.6h-0.9v1.2
		H274.6z M278.7,40.6c0.5,0,0.9-0.1,1.3-0.2c0.4-0.2,0.7-0.4,1-0.7c0.3-0.3,0.5-0.7,0.6-1.1c0.1-0.5,0.2-1,0.2-1.6
		c0-0.6-0.1-1.1-0.2-1.6c-0.1-0.4-0.3-0.8-0.6-1.1c-0.3-0.3-0.6-0.5-1-0.7c-0.4-0.2-0.8-0.2-1.3-0.2c-0.5,0-0.9,0.1-1.3,0.2
		s-0.7,0.4-1,0.7c-0.3,0.3-0.5,0.7-0.6,1.1s-0.2,1-0.2,1.6c0,0.6,0.1,1.1,0.2,1.6s0.4,0.8,0.6,1.1c0.3,0.3,0.6,0.5,1,0.7
		S278.2,40.6,278.7,40.6z M278.7,39.3c-0.5,0-0.8-0.2-1.1-0.5s-0.4-0.7-0.4-1.3v-1c0-0.6,0.1-1,0.4-1.3s0.6-0.5,1.1-0.5
		c0.5,0,0.8,0.2,1.1,0.5c0.3,0.3,0.4,0.7,0.4,1.3v1c0,0.6-0.1,1-0.4,1.3C279.5,39.1,279.2,39.3,278.7,39.3z M284.5,40.5v-4.7h0
		l0.7,1.4l1.9,3.3h1.7v-7h-1.4v4.7h0l-0.7-1.4l-1.9-3.3H283v7H284.5z M205,54.6c0.6,0,1.2-0.1,1.6-0.4c0.4-0.3,0.8-0.7,1-1.2
		l-1.2-0.7c-0.1,0.3-0.3,0.5-0.5,0.7c-0.2,0.2-0.5,0.3-0.9,0.3c-0.4,0-0.8-0.1-1.1-0.4s-0.4-0.7-0.4-1.3v-1.1c0-0.6,0.1-1,0.4-1.3
		c0.3-0.3,0.6-0.4,1.1-0.4c0.4,0,0.7,0.1,0.9,0.3c0.2,0.2,0.3,0.4,0.4,0.7l1.3-0.7c-0.3-0.6-0.6-1-1-1.2c-0.4-0.3-1-0.4-1.6-0.4
		c-0.5,0-0.9,0.1-1.3,0.2s-0.7,0.4-1,0.7c-0.3,0.3-0.5,0.7-0.6,1.1s-0.2,1-0.2,1.6c0,0.6,0.1,1.1,0.2,1.6c0.1,0.4,0.4,0.8,0.6,1.1
		c0.3,0.3,0.6,0.5,1,0.7C204.1,54.5,204.5,54.6,205,54.6z M211.5,54.6c0.5,0,0.9-0.1,1.3-0.2c0.4-0.2,0.7-0.4,1-0.7
		c0.3-0.3,0.5-0.7,0.6-1.1c0.1-0.5,0.2-1,0.2-1.6c0-0.6-0.1-1.1-0.2-1.6c-0.1-0.4-0.3-0.8-0.6-1.1c-0.3-0.3-0.6-0.5-1-0.7
		c-0.4-0.2-0.8-0.2-1.3-0.2c-0.5,0-0.9,0.1-1.3,0.2c-0.4,0.2-0.7,0.4-1,0.7c-0.3,0.3-0.5,0.7-0.6,1.1s-0.2,1-0.2,1.6
		c0,0.6,0.1,1.1,0.2,1.6s0.4,0.8,0.6,1.1c0.3,0.3,0.6,0.5,1,0.7C210.6,54.5,211,54.6,211.5,54.6z M211.5,53.3
		c-0.5,0-0.8-0.2-1.1-0.5c-0.3-0.3-0.4-0.7-0.4-1.3v-1c0-0.6,0.1-1,0.4-1.3c0.3-0.3,0.6-0.5,1.1-0.5c0.5,0,0.8,0.2,1.1,0.5
		s0.4,0.7,0.4,1.3v1c0,0.6-0.1,1-0.4,1.3S212,53.3,211.5,53.3z M217.3,54.5v-4.7h0l0.7,1.4l1.9,3.3h1.7v-7h-1.4v4.7h0l-0.7-1.4
		l-1.9-3.3h-1.7v7H217.3z M225.3,54.6c0.4,0,0.8-0.1,1.2-0.2c0.3-0.1,0.6-0.3,0.9-0.5c0.2-0.2,0.4-0.4,0.5-0.7
		c0.1-0.3,0.2-0.6,0.2-0.9c0-0.6-0.2-1.1-0.5-1.4c-0.3-0.3-0.9-0.6-1.6-0.7l-0.7-0.1c-0.3,0-0.5-0.1-0.6-0.2
		c-0.1-0.1-0.2-0.3-0.2-0.5c0-0.2,0.1-0.4,0.2-0.5c0.2-0.1,0.4-0.2,0.8-0.2c0.4,0,0.7,0.1,0.9,0.2s0.4,0.3,0.6,0.5l1-1
		c-0.3-0.3-0.6-0.6-1-0.7c-0.4-0.2-0.9-0.2-1.4-0.2c-0.4,0-0.8,0.1-1.1,0.2c-0.3,0.1-0.6,0.2-0.8,0.4c-0.2,0.2-0.4,0.4-0.5,0.7
		c-0.1,0.3-0.2,0.5-0.2,0.9c0,0.6,0.2,1.1,0.5,1.4s0.9,0.6,1.6,0.7l0.7,0.1c0.3,0,0.5,0.1,0.7,0.3c0.1,0.1,0.2,0.3,0.2,0.5
		c0,0.3-0.1,0.5-0.3,0.6c-0.2,0.2-0.5,0.2-0.8,0.2c-0.7,0-1.3-0.3-1.8-0.8l-1,1c0.3,0.3,0.7,0.6,1.1,0.8S224.7,54.6,225.3,54.6z
		 M232.1,54.6c0.5,0,0.9-0.1,1.3-0.2s0.7-0.4,1-0.7c0.3-0.3,0.5-0.7,0.6-1.1c0.1-0.5,0.2-1,0.2-1.6c0-0.6-0.1-1.1-0.2-1.6
		c-0.1-0.4-0.3-0.8-0.6-1.1c-0.3-0.3-0.6-0.5-1-0.7c-0.4-0.2-0.8-0.2-1.3-0.2c-0.5,0-0.9,0.1-1.3,0.2s-0.7,0.4-1,0.7
		c-0.3,0.3-0.5,0.7-0.6,1.1c-0.1,0.5-0.2,1-0.2,1.6c0,0.6,0.1,1.1,0.2,1.6c0.1,0.5,0.4,0.8,0.6,1.1c0.3,0.3,0.6,0.5,1,0.7
		S231.7,54.6,232.1,54.6z M232.1,53.3c-0.5,0-0.8-0.2-1.1-0.5s-0.4-0.7-0.4-1.3v-1c0-0.6,0.1-1,0.4-1.3s0.6-0.5,1.1-0.5
		c0.5,0,0.8,0.2,1.1,0.5c0.3,0.3,0.4,0.7,0.4,1.3v1c0,0.6-0.1,1-0.4,1.3C232.9,53.1,232.6,53.3,232.1,53.3z M240.6,54.5v-1.3H238
		v-5.6h-1.5v7H240.6z M246.5,54.5v-1.3h-3.2v-1.5h2.8v-1.3h-2.8v-1.4h3.2v-1.3h-4.8v7H246.5z" />
    <path class="st2" d="M207.7,24.5c0.4,0,0.7-0.1,1-0.2c0.3-0.1,0.6-0.3,0.8-0.6c0.2-0.3,0.4-0.5,0.5-0.9c0.1-0.3,0.2-0.7,0.2-1.1
		c0-0.4-0.1-0.8-0.2-1.1c-0.1-0.3-0.3-0.5-0.5-0.7c-0.2-0.2-0.4-0.3-0.7-0.4c-0.2-0.1-0.5-0.1-0.7-0.1v-0.1c0.3,0,0.5-0.1,0.7-0.1
		c0.2-0.1,0.4-0.2,0.6-0.4c0.2-0.2,0.3-0.4,0.4-0.6c0.1-0.3,0.1-0.6,0.1-1c0-0.8-0.2-1.4-0.7-1.8c-0.5-0.5-1.1-0.7-1.9-0.7h-4.7v9.8
		H207.7z M206.7,18.7h-2.1v-2.2h2.1c0.3,0,0.5,0.1,0.7,0.2c0.2,0.2,0.2,0.4,0.2,0.7v0.4c0,0.3-0.1,0.5-0.2,0.7
		C207.2,18.7,207,18.7,206.7,18.7z M207.1,22.7h-2.5v-2.2h2.5c0.3,0,0.5,0.1,0.7,0.2c0.2,0.2,0.2,0.4,0.2,0.7v0.5
		c0,0.3-0.1,0.5-0.2,0.7C207.6,22.6,207.4,22.7,207.1,22.7z M213.5,24.7c0.6,0,1-0.1,1.4-0.4c0.4-0.2,0.6-0.6,0.7-1.1h0.1
		c0.1,0.4,0.2,0.7,0.5,0.9c0.2,0.2,0.6,0.4,0.9,0.4h1.1v-1.6h-0.7v-3.2c0-0.9-0.3-1.5-0.8-2c-0.5-0.5-1.3-0.7-2.4-0.7
		c-0.8,0-1.4,0.1-1.8,0.4c-0.5,0.2-0.8,0.6-1.1,1l1.2,1.1c0.2-0.2,0.4-0.4,0.6-0.6c0.2-0.2,0.6-0.3,1-0.3c0.4,0,0.8,0.1,0.9,0.3
		c0.2,0.2,0.3,0.5,0.3,0.8v0.5h-1.2c-1,0-1.7,0.2-2.3,0.6c-0.6,0.4-0.8,1-0.8,1.7c0,0.6,0.2,1.2,0.6,1.6
		C212.2,24.5,212.8,24.7,213.5,24.7z M214.3,23.2c-0.3,0-0.5-0.1-0.7-0.2c-0.2-0.1-0.3-0.3-0.3-0.6v-0.2c0-0.6,0.4-0.8,1.2-0.8h1
		v0.9c0,0.3-0.1,0.6-0.4,0.7C214.9,23.2,214.6,23.2,214.3,23.2z M222.7,24.7c0.7,0,1.3-0.2,1.9-0.5s0.9-0.8,1.1-1.5l-1.6-0.7
		c-0.1,0.3-0.3,0.6-0.5,0.8c-0.2,0.2-0.5,0.3-0.9,0.3c-0.4,0-0.7-0.1-1-0.4c-0.2-0.3-0.3-0.6-0.3-1.1v-1.4c0-0.5,0.1-0.8,0.3-1.1
		c0.2-0.3,0.5-0.4,1-0.4c0.4,0,0.6,0.1,0.9,0.3c0.2,0.2,0.3,0.4,0.4,0.7l1.7-0.7c-0.2-0.6-0.6-1.1-1.1-1.4c-0.5-0.3-1.1-0.5-1.9-0.5
		c-0.6,0-1,0.1-1.5,0.3c-0.4,0.2-0.8,0.4-1.1,0.8c-0.3,0.3-0.5,0.7-0.7,1.2c-0.2,0.5-0.2,1.1-0.2,1.6c0,0.6,0.1,1.1,0.2,1.6
		c0.2,0.5,0.4,0.9,0.7,1.2c0.3,0.3,0.6,0.6,1.1,0.8C221.6,24.6,222.1,24.7,222.7,24.7z M229,24.5v-2.1l0.9-1l1.7,3.1h2.5l-2.7-4.5
		l2.4-2.8h-2.3l-1.5,1.8l-0.9,1.4H229v-6.1h-2.1v10.4H229z M241.3,24.7c0.5,0,1-0.1,1.4-0.3c0.4-0.2,0.8-0.4,1.1-0.8
		c0.3-0.4,0.5-0.8,0.7-1.2c0.2-0.5,0.2-1.1,0.2-1.6c0-0.6-0.1-1.1-0.2-1.6c-0.1-0.4-0.4-0.9-0.7-1.2c-0.3-0.3-0.7-0.6-1.1-0.8
		c-0.5-0.2-1-0.3-1.4-0.3c-0.5,0-1,0.1-1.4,0.3c-0.4,0.2-0.8,0.4-1.1,0.8c-0.3,0.3-0.5,0.7-0.7,1.2c-0.2,0.5-0.2,1.1-0.2,1.6
		c0,0.6,0.1,1.1,0.2,1.6c0.2,0.5,0.4,0.9,0.7,1.2s0.7,0.6,1.1,0.8C240.3,24.6,240.7,24.7,241.3,24.7z M241.3,23
		c-0.4,0-0.7-0.1-1-0.4c-0.2-0.3-0.3-0.6-0.3-1.1v-1.5c0-0.5,0.1-0.8,0.3-1.1c0.2-0.3,0.5-0.4,1-0.4c0.4,0,0.7,0.1,1,0.4
		c0.2,0.3,0.3,0.6,0.3,1.1v1.5c0,0.5-0.1,0.8-0.3,1.1C242,22.9,241.7,23,241.3,23z M248.6,24.5v-5.7h1.5v-1.6h-1.5v-1.4h1.5v-1.6
		h-1.3c-0.7,0-1.3,0.2-1.6,0.5c-0.4,0.4-0.6,0.9-0.6,1.6v0.9h-1v1.6h1v5.7H248.6z M257.3,16.4c0.4,0,0.7-0.1,0.9-0.3
		c0.1-0.1,0.2-0.2,0.2-0.3c0-0.1,0.1-0.3,0.1-0.4V15c0-0.1,0-0.3-0.1-0.4c0-0.1-0.1-0.2-0.2-0.3c-0.2-0.2-0.5-0.3-0.9-0.3
		c-0.4,0-0.7,0.1-0.9,0.3c-0.1,0.1-0.2,0.2-0.2,0.3c-0.1,0.1-0.1,0.3-0.1,0.4v0.3c0,0.3,0.1,0.5,0.3,0.7
		C256.6,16.3,256.9,16.4,257.3,16.4z M253.7,24.5v-5.7h2.6v5.7h2.1v-7.4h-4.7v-1.4h1.5v-1.6h-1.3c-0.7,0-1.3,0.2-1.6,0.5
		c-0.4,0.4-0.6,0.9-0.6,1.6v0.9h-1v1.6h1v5.7H253.7z M263.3,24.7c0.7,0,1.3-0.2,1.9-0.5s0.9-0.8,1.1-1.5l-1.6-0.7
		c-0.1,0.3-0.3,0.6-0.5,0.8c-0.2,0.2-0.5,0.3-0.9,0.3c-0.4,0-0.7-0.1-1-0.4c-0.2-0.3-0.3-0.6-0.3-1.1v-1.4c0-0.5,0.1-0.8,0.3-1.1
		c0.2-0.3,0.5-0.4,1-0.4c0.4,0,0.6,0.1,0.9,0.3c0.2,0.2,0.3,0.4,0.4,0.7l1.7-0.7c-0.2-0.6-0.6-1.1-1.1-1.4c-0.5-0.3-1.1-0.5-1.9-0.5
		c-0.5,0-1,0.1-1.5,0.3s-0.8,0.4-1.1,0.8c-0.3,0.3-0.5,0.7-0.7,1.2c-0.2,0.5-0.2,1.1-0.2,1.6c0,0.6,0.1,1.1,0.2,1.6
		c0.1,0.5,0.4,0.9,0.7,1.2c0.3,0.3,0.6,0.6,1.1,0.8C262.2,24.6,262.7,24.7,263.3,24.7z M270.6,24.7c0.7,0,1.3-0.1,1.8-0.3
		s1-0.5,1.3-0.9l-1-1.3c-0.2,0.2-0.5,0.4-0.8,0.6c-0.3,0.2-0.6,0.3-1,0.3c-0.6,0-1-0.1-1.2-0.4c-0.3-0.3-0.4-0.7-0.4-1.2v-0.1h4.7
		v-0.6c0-0.5-0.1-1-0.2-1.4c-0.1-0.4-0.3-0.8-0.6-1.2c-0.3-0.4-0.7-0.6-1.1-0.8c-0.4-0.2-1-0.3-1.6-0.3c-0.6,0-1,0.1-1.5,0.3
		c-0.4,0.2-0.8,0.4-1.1,0.8c-0.3,0.3-0.5,0.7-0.7,1.2c-0.2,0.5-0.2,1-0.2,1.6c0,0.6,0.1,1.1,0.2,1.6s0.4,0.9,0.7,1.2
		s0.7,0.6,1.1,0.8C269.6,24.6,270.1,24.7,270.6,24.7z M271.8,20.1h-2.6V20c0-0.5,0.1-0.8,0.4-1.1s0.6-0.4,1-0.4
		c0.4,0,0.7,0.1,0.9,0.4c0.2,0.3,0.3,0.6,0.3,1.1V20.1z" />
  </g>
  <rect x="39.1" y="13.7" class="st3" width="122.4" height="40.6" />
  <g>
    <path class="st2" d="M63.6,15l-2.1,11.9h-7.3c-6.8,0-13.3,5.5-14.5,12.3L39.3,42c-1.2,6.8,3.3,12.3,10.1,12.3h6.1
		c4.9,0,9.7-4,10.5-8.9l5.6-31.7L63.6,15z M58.5,44.2c-0.3,1.5-1.6,2.8-3.2,2.8h-3.7c-3,0-5.1-2.5-4.6-5.5l0.3-1.8
		c0.5-3,3.5-5.5,6.5-5.5h6.4L58.5,44.2z M119.6,54.3l4.8-27.1h7.5l-4.8,27.1H119.6z M120.4,27.5c-0.4,2.1-0.8,4.3-1.1,6.4
		c-3.6-1.1-7.3-0.8-8.4-0.5c-1.2,6.9-2.5,13.9-3.7,20.8h-7.6c1-5.8,4.5-25.7,4.5-25.7C106.7,27.6,112.7,25.6,120.4,27.5z M89.8,26.9
		H84c-5.7,0-11.2,4.6-12.2,10.4l-1.2,6.7c-1,5.7,2.8,10.4,8.5,10.4h12.5l1.3-7.3H81.1c-1.9,0-3.2-1.5-2.8-3.5l0-0.2h18.9l1.1-6.1
		C99.4,31.5,95.6,26.9,89.8,26.9L89.8,26.9z M90.8,36.6l0,0.4H79.5l0.1-0.3c0.3-1.9,2.1-3.6,4-3.6h4.4
		C89.8,33.1,91.1,34.7,90.8,36.6z M153.8,27.2h7.6c-2.6,6.8-8.5,18.5-14.2,27.1h-7.6c-2.6-8.2-4.3-19.6-4.6-27.1h7.6
		c0.1,2.4,1.2,11.5,2.5,17.9C148.5,38.9,152.3,30.8,153.8,27.2L153.8,27.2z" />
  </g>
</svg>
