<svg xmlns="http://www.w3.org/2000/svg" width="24" height="24" viewBox="0 0 24 24">
    <g fill="none" fill-rule="evenodd">
        <g>
            <g>
                <path fill="#F2F2F2" fill-rule="nonzero" d="M4 0h16c2.21 0 4 1.79 4 4v16c0 2.21-1.79 4-4 4H4c-2.21 0-4-1.79-4-4V4c0-2.21 1.79-4 4-4z" transform="translate(-1050 -1012) translate(1050 1012)"/>
                <g fill="#2A3052">
                    <path d="M3.854 3.146L8 7.293l4.146-4.147c.196-.195.512-.195.708 0 .195.196.195.512 0 .708L8.707 8l4.147 4.146c.195.196.195.512 0 .708-.196.195-.512.195-.708 0L8 8.707l-4.146 4.147c-.196.195-.512.195-.708 0-.195-.196-.195-.512 0-.708L7.293 8 3.146 3.854c-.195-.196-.195-.512 0-.708.196-.195.512-.195.708 0z" transform="translate(-1050 -1012) translate(1050 1012) translate(4 4)"/>
                </g>
            </g>
        </g>
    </g>
</svg>
