<svg width="16" height="16" viewBox="0 0 16 16" fill="none" xmlns="http://www.w3.org/2000/svg">
    <path d="M10.5 3C11.3284 3 12 3.67157 12 4.5V13.5C12 14.3284 11.3284 15 10.5 15H3.5C2.67157 15 2 14.3284 2 13.5V4.5C2 3.67157 2.67157 3 3.5 3H10.5ZM10.5 4H3.5C3.22386 4 3 4.22386 3 4.5V13.5C3 13.7761 3.22386 14 3.5 14H10.5C10.7761 14 11 13.7761 11 13.5V4.5C11 4.22386 10.7761 4 10.5 4ZM11.5 1C12.8255 1 13.91 2.03154 13.9947 3.33562L14 3.5V11.5C14 11.7761 13.7761 12 13.5 12C13.2545 12 13.0504 11.8231 13.0081 11.5899L13 11.5V3.5C13 2.7203 12.4051 2.07955 11.6445 2.00687L11.5 2H5.5C5.22386 2 5 1.77614 5 1.5C5 1.25454 5.17688 1.05039 5.41012 1.00806L5.5 1H11.5Z" fill="#333333"/>
</svg>
