<svg xmlns="http://www.w3.org/2000/svg" width="24" height="24" viewBox="0 0 24 24">
    <g fill="none" fill-rule="evenodd">
        <g>
            <g>
                <path fill="#F2F2F2" fill-rule="nonzero" d="M4 0h16c2.21 0 4 1.79 4 4v16c0 2.21-1.79 4-4 4H4c-2.21 0-4-1.79-4-4V4c0-2.21 1.79-4 4-4z" transform="translate(-1018 -1012) translate(1018 1012)"/>
                <g fill="#2A3052">
                    <path d="M11.5 1c.78 0 1.42.595 1.493 1.356L13 2.5v6.671c1.166.412 2 1.523 2 2.829 0 .648-.205 1.248-.555 1.738l1.409 1.408c.195.196.195.512 0 .708-.174.173-.443.192-.638.057l-.07-.057-1.408-1.409c-.49.35-1.09.555-1.738.555-1.044 0-1.963-.533-2.5-1.342V14h-5c-.78 0-1.42-.595-1.493-1.356L3 12.5v-10c0-.78.595-1.42 1.356-1.493L4.5 1h7zm.5 9c-1.105 0-2 .895-2 2s.895 2 2 2 2-.895 2-2-.895-2-2-2zm-.5-8h-7c-.245 0-.45.177-.492.41L4 2.5v10c0 .245.177.45.41.492L4.5 13h4.671c-.11-.312-.171-.649-.171-1 0-1.657 1.343-3 3-3V2.5c0-.245-.177-.45-.41-.492L11.5 2zm-3 6c.276 0 .5.224.5.5 0 .245-.177.45-.41.492L8.5 9h-3c-.276 0-.5-.224-.5-.5 0-.245.177-.45.41-.492L5.5 8h3zm2-2c.276 0 .5.224.5.5 0 .245-.177.45-.41.492L10.5 7h-5c-.276 0-.5-.224-.5-.5 0-.245.177-.45.41-.492L5.5 6h5zm0-2c.276 0 .5.224.5.5 0 .245-.177.45-.41.492L10.5 5h-5c-.276 0-.5-.224-.5-.5 0-.245.177-.45.41-.492L5.5 4h5z" transform="translate(-1018 -1012) translate(1018 1012) translate(4 4)"/>
                </g>
            </g>
        </g>
    </g>
</svg>
